<svg xmlns="http://www.w3.org/2000/svg" viewBox="0 0 19.09 19.1"><defs><style>.cls-1{fill:#ebebeb;}</style></defs><title>akhr talabat</title><g id="Layer_2" data-name="Layer 2"><g id="Layer_2-2" data-name="Layer 2"><path class="cls-1" d="M18.91,3.18a4.41,4.41,0,0,0-8.15-.78c0,.1-.09.18-.23.18H3.89c0-.43-.09-.85-.13-1.28S3.67.43,3.63,0H0V1.13H2.62c0,.46.09.91.14,1.36.13,1.32.26,2.64.4,4s.25,2.6.38,3.91c.08.8.16,1.6.25,2.41,0,.12,0,.18-.13.23a1.84,1.84,0,0,0,.75,3.52h.82a6.83,6.83,0,0,0-.09.76,1.82,1.82,0,0,0,1.45,1.77l.12,0h.52l.3-.09a1.84,1.84,0,0,0,1.2-2.29s0-.11-.05-.18h3a1.86,1.86,0,0,0-.09,1.14A1.82,1.82,0,0,0,13,19.06l.12,0h.49l.19-.05a1.85,1.85,0,0,0,1.32-2.35c0-.05,0-.1-.05-.17h1.35V15.41h-12a.73.73,0,0,1-.8-.66.71.71,0,0,1,.6-.77,1.51,1.51,0,0,1,.3,0H16.47c0-.41.09-.82.12-1.23.13-1.31.29-2.61.39-3.93a1.32,1.32,0,0,1,.54-1A4.1,4.1,0,0,0,19.06,4.9l0-.08V4A8.58,8.58,0,0,0,18.91,3.18Zm-5.5,13.35a.73.73,0,1,1-.73.74A.73.73,0,0,1,13.41,16.53ZM7,16.53a.73.73,0,1,1-.72.73A.72.72,0,0,1,7,16.53Zm8.49-3.7H4.91Q4.46,8.27,4,3.71h6.32a4.45,4.45,0,0,0,5.56,5Zm-.79-5.12A3.29,3.29,0,1,1,18,4.44,3.31,3.31,0,0,1,14.67,7.71Z"/><path class="cls-1" d="M3.76,1.29C3.72.86,3.67.43,3.63,0h0C3.67.43,3.72.86,3.76,1.29Z"/><rect class="cls-1" x="7.06" y="10.29" width="1.1" height="1.09"/><rect class="cls-1" x="9.64" y="10.29" width="1.09" height="1.09"/><rect class="cls-1" x="12.22" y="10.3" width="1.09" height="1.08"/><path class="cls-1" d="M16.77,3.76,14.31,6.22,12.58,4.5l.78-.77.94.95L16,3C16.27,3.26,16.52,3.52,16.77,3.76Z"/></g></g></svg>