<svg xmlns="http://www.w3.org/2000/svg" viewBox="0 0 178.73 189.9"><defs><style>.cls-1{fill:#723b96}.cls-2{fill:#713b96}.cls-4{fill:#723c97}.cls-6{fill:#713a96}.cls-7{fill:none}</style></defs><g id="Layer_2" data-name="Layer 2"><g id="Layer_2-2" data-name="Layer 2"><path class="cls-1" d="M115.76 188.84c0 .48-.15.61-.6.68-1 .15-2 .13-3 .38h-4.22c-.77-.15-1.54-.27-2.3-.46C100 188 98 183.66 98.4 178.78c.46-5.29 4.33-8.66 9.84-9a11.52 11.52 0 015.5.88c2.46 1.13 2.66 3.3.48 4.92-.26.19-.37.11-.58-.05a7.08 7.08 0 00-7-1.13c-2.29.78-3.23 2.64-3.42 4.94a7.27 7.27 0 00.17 2.23 4.94 4.94 0 004.62 3.93 13.34 13.34 0 002.68.06c.4 0 .5-.16.49-.54v-2.18c0-.4-.13-.51-.51-.5a17.77 17.77 0 01-1.79 0 1.71 1.71 0 01-1.74-1.83 4.62 4.62 0 010-.83c.16-1.35.38-1.54 1.73-1.54h4.1c1.89 0 2.73.88 2.74 2.75.04 2.66.02 5.31.05 7.95z"/><path class="cls-2" d="M24.71 145.74c0-1.71 0-1.71-1.72-1.89-1.88-.21-2.72.54-2.73 2.42s0 4 0 5.95c0 .21.11.53-.28.52a48.18 48.18 0 01-5.24-.09 1.23 1.23 0 01-1-1.07 6.54 6.54 0 01-.12-1.53v-5.76c0-.2.1-.49-.3-.48-2.53.07-5.08-.22-7.59.3-2.92.6-5.07 2.07-5.59 5.25l-.09.09v2.3c.11.06.11.17.13.27a5.52 5.52 0 004.08 4.55 7.36 7.36 0 006.74-1.14c.15-.12.29-.36.52-.07a3.87 3.87 0 003.33 1.27h9.27c.48 0 .61-.12.6-.6-.02-3.42-.01-6.86-.01-10.29zM9 151.11a2.21 2.21 0 01-2.57 1.51 2.06 2.06 0 01-1.9-2.18 3.67 3.67 0 01.11-.78c0-.08 0-.16.08-.23a1.65 1.65 0 01.18-.43l.1-.15a1.31 1.31 0 01.11-.12.57.57 0 01.11-.11l.15-.13a.72.72 0 01.15-.11 1.88 1.88 0 01.24-.14 1 1 0 01.21-.1l.25-.1.24-.07h.32l.31-.06h.32c1.67-.11 1.67-.11 1.67 1.61a6.78 6.78 0 01-.08 1.59z"/><path class="cls-1" d="M14.86 188.45a8.92 8.92 0 01-3.77 1.32c-.15 0-.34-.05-.46.13H7a19.66 19.66 0 00-2.4-.5 18 18 0 01-3.9-1.48c-.36-.19-.41-.38-.21-.74.51-.91 1-1.84 1.45-2.78.19-.39.34-.38.71-.19a13.35 13.35 0 008.12 1.35 3.16 3.16 0 00.79-.25 1.35 1.35 0 00.85-1.32 1.33 1.33 0 00-.79-1.28 10.05 10.05 0 00-3-.74 23.36 23.36 0 01-4.28-1 5 5 0 01-3.56-4.54A5.5 5.5 0 013.56 171a11 11 0 016.64-1.16 13.52 13.52 0 013.56.69c.26.1.52.2.77.32 2.22 1 2.49 3 .68 4.62a.47.47 0 01-.7.06A10 10 0 007.18 174a2.22 2.22 0 00-1 .43 1.36 1.36 0 00.24 2.39 17.07 17.07 0 003.65.89 21.61 21.61 0 014 1.08 4.8 4.8 0 013.24 4.07 5.53 5.53 0 01-2.45 5.59zM178.73 182.61v1.92c-.07.26-.12.53-.2.79-.66 2.41-2.44 3.56-4.69 4.19a15.54 15.54 0 00-1.77.39h-3.46c-.84-.17-1.69-.32-2.53-.51a15.8 15.8 0 01-3.89-1.43c-.38-.2-.53-.37-.26-.82.51-.86 1-1.75 1.39-2.66.2-.4.33-.49.79-.26a13.34 13.34 0 008.12 1.34 2.15 2.15 0 001.2-.55 1.46 1.46 0 00-.53-2.38 16 16 0 00-3.54-.79 18.22 18.22 0 01-3.65-.91 5 5 0 01-3.47-4.42 5.58 5.58 0 012.61-5.41 8.52 8.52 0 014.11-1.25 16.19 16.19 0 016.07.65 6.82 6.82 0 011.12.47c2.08 1.05 2.24 3.21.36 4.63-.27.2-.4.06-.59-.07a10.18 10.18 0 00-7.4-1.49 2.41 2.41 0 00-.94.39 1.38 1.38 0 00.22 2.43 17.66 17.66 0 003.65.88 23.24 23.24 0 013.83 1 4.91 4.91 0 013.36 3.77s.06.07.09.1z"/><path class="cls-2" d="M59.16 181.94c-.21 4.44-2.67 7.15-7.09 7.86-.08 0-.14.07-.22.1h-2.94a6.16 6.16 0 00-1.35-.31 7.5 7.5 0 01-5.83-6.46 15.19 15.19 0 01-.15-2.23v-8.32c0-1.57.68-2.24 2.26-2.27h.38c1.83.05 2 .22 2 2v8.45a7.91 7.91 0 00.37 2.51 3.11 3.11 0 002.4 2.17 6.85 6.85 0 002.67 0 3.18 3.18 0 002.6-2.51 8.19 8.19 0 00.28-2.15v-8.19c0-1.62.68-2.3 2.29-2.33h.38c1.82.06 2 .25 2 2-.01 3.28.11 6.48-.05 9.68z"/><path d="M116.21 80.81a5.32 5.32 0 01.18 7.75q-11.65 11.64-23.31 23.3a5.23 5.23 0 01-7.62 0q-11.68-11.64-23.35-23.33a5.22 5.22 0 010-7.52q4.89-4.91 9.78-9.77a5.28 5.28 0 117.39 7.54c-1.84 1.84-3.67 3.7-5.53 5.52-.36.35-.43.54 0 .93q7.57 7.51 15.08 15.08c.39.4.58.32.93 0q7.5-7.53 15-15c.42-.42.38-.61 0-1Q83.59 63.13 62.42 42a5.43 5.43 0 01-1.75-4 5 5 0 011.44-3.59Q70.29 26.18 78.49 18a5.14 5.14 0 013.73-1.43H97.2a5.57 5.57 0 014.13 1.71q7.59 7.62 15.2 15.21a5.24 5.24 0 010 7.7L107 50.7a5.26 5.26 0 01-9.07-4 5.15 5.15 0 011.6-3.46c1.83-1.82 3.65-3.65 5.49-5.46.34-.33.36-.51 0-.85q-4.72-4.69-9.42-9.41a1.07 1.07 0 00-.84-.36h-10a1.18 1.18 0 00-.89.4l-10 10c-.4.39-.33.58 0 .94Q95 59.64 116.21 80.81z" fill="#1dbab1"/><path class="cls-2" d="M100.5 145.77c0-1.7-.14-1.84-1.88-1.94h-.13c-1.71 0-2.39.61-2.4 2.31s0 3.42 0 5.12c0 1.54 0 1.54-1.57 1.5-1.32 0-1.81-.52-1.82-1.84v-5.12c0-1.73-.16-1.89-1.92-2h-.12c-1.67 0-2.34.63-2.35 2.29s0 3.16 0 4.74a1.73 1.73 0 11-3.45.12v-5.18c0-1.73-.14-1.86-1.88-2s-2.55.59-2.55 2.41v4.61c0 1.3-.52 1.81-1.83 1.88-.68.05-1.36 0-2 0h-5.18a2.53 2.53 0 01-2.67-2.52 2.68 2.68 0 012.45-2.85 4.3 4.3 0 013.25.84c.19.14.34.36.61.14a2.84 2.84 0 001.25-2.13A2 2 0 0075 144.4a5.69 5.69 0 00-1.11-.47 8.55 8.55 0 00-4.05-.25c-4.94.84-6.83 5.27-4.88 9.07h-5.59c-.34 0-.35-.19-.35-.44a24.18 24.18 0 00-.12-2.82 6.1 6.1 0 00-5.12-5.75 8.69 8.69 0 00-3.37-.05 6.51 6.51 0 00-5.41 6.55 6.08 6.08 0 005.4 6.26 28.61 28.61 0 003.7.14c.18 0 .44-.13.46.25a2.79 2.79 0 01-2.4 2.8 6.07 6.07 0 01-2.89-.35c-.35-.14-.47 0-.57.29-.24.84-.48 1.68-.78 2.5-.15.4 0 .56.35.69a10.63 10.63 0 004.4.59 6.14 6.14 0 005.76-4.31 5.93 5.93 0 00.43-1.79c0-.63.31-.69.84-.69h19.26a4.35 4.35 0 003-1 .61.61 0 011 0 5.76 5.76 0 007.39-.12c.2-.16.29-.16.45 0a3.09 3.09 0 002.57 1.05h6.59c.51 0 .63-.13.63-.63-.1-3.33-.09-6.74-.09-10.15zm-45.85 6.65c0 .25-.12.33-.35.33H53a7.65 7.65 0 01-1.72-.1l-.37-.11-.17-.08-.17-.08a2.76 2.76 0 01-.56-.45 2.1 2.1 0 01-.26-.33 2.6 2.6 0 01-.4-1.53 3.19 3.19 0 01.08-.7 1.55 1.55 0 010-.21l.06-.2c0-.07.05-.13.07-.19s.06-.12.09-.18a.8.8 0 01.08-.16l.09-.14.09-.12a2.09 2.09 0 01.2-.22.48.48 0 01.11-.09 1.79 1.79 0 01.63-.36 2 2 0 01.42-.11H52.19a.85.85 0 01.23 0 2 2 0 01.26.06l.24.08.18.08a2.29 2.29 0 01.41.28.8.8 0 01.13.13 1.74 1.74 0 01.25.29 2.93 2.93 0 01.38.75c0 .1.07.2.1.3a2.73 2.73 0 01.1.48.5.5 0 010 .16 2.63 2.63 0 010 .49 3 3 0 010 .42c.19.51.18 1.01.18 1.51zM178.19 147.59a7.18 7.18 0 00-4.27-6.49 11.89 11.89 0 00-6.68-.94 7.47 7.47 0 00-2.45.69 2 2 0 00-1.13 1.74c0 .31.25.71 0 .9s-.64.13-1 .17h-.19a6.56 6.56 0 00-5.47 4.94 15 15 0 00-.19 2.41c-.06 1.09-.48 1.6-1.54 1.67-1.21.09-2.43 0-3.64.07-.32 0-.32-.18-.34-.41 0-.49-.06-1-.12-1.46a8.37 8.37 0 00-11-7c-2.35.78-2 2.66-1 4a.51.51 0 00.62.15 8.58 8.58 0 012-.3c2.89-.12 4.57 1.44 4.72 4.33 0 .58-.13.71-.69.7h-8.25c-.53 0-.66.15-.64.64a24.29 24.29 0 010 2.56c0 .57.15.71.71.7h17.34a4.55 4.55 0 003.57-1.39c.19-.2.32-.25.58 0a7.15 7.15 0 004.49 1.41h14c.35 0 .54 0 .53-.47.08-2.9.17-5.77.04-8.62zm-11.77 4.29v.12a1.1 1.1 0 010 .18.64.64 0 010 .07.24.24 0 010 .09.36.36 0 01-.08.15.09.09 0 01-.06.06.84.84 0 01-.49.15h-1.97a2.14 2.14 0 01-.43-.07l-.39-.11-.35-.16a2.23 2.23 0 01-.3-.2 1.55 1.55 0 01-.35-.16 2.43 2.43 0 01-.41-.58 3.14 3.14 0 01-.26-.73 2.77 2.77 0 010-1.28c0-.09.05-.18.08-.28a.3.3 0 010-.08.52.52 0 01.06-.16 2.17 2.17 0 01.19-.33 1.55 1.55 0 01.19-.24 1.44 1.44 0 01.46-.39 2.74 2.74 0 013-.11 1.76 1.76 0 01.34.25l.14.14.12.16a1.61 1.61 0 01.23.43.88.88 0 01.07.23.06.06 0 010 .06 2.86 2.86 0 01.07.28v.64a.48.48 0 010 .12.34.34 0 010 .1v1c0 .34.15.46.14.65zm7.48-1.06v1.65a.29.29 0 01-.23.26h-2.39a.64.64 0 01-.38-.07.38.38 0 01-.14-.31v-.18a16.72 16.72 0 00-.15-3.32c-.05-.28-.11-.55-.18-.82a6.07 6.07 0 00-1.52-2.71 6.48 6.48 0 00-2.14-1.38 8.3 8.3 0 014.23.22 4 4 0 012.84 3.73c.08.99.07 1.96.06 2.93z"/><path class="cls-4" d="M101.62.56a6.25 6.25 0 00-7.05 1.28C92.93 3.37 91.38 5 89.81 6.59c-.32.33-.47.3-.78 0-1.57-1.59-3.11-3.24-4.76-4.76a6.25 6.25 0 00-7-1.27 6.51 6.51 0 002.55 12.5h19.26a6.54 6.54 0 006.58-6.54 6.47 6.47 0 00-4.04-5.96zM84.3 9.3h-4.91l-.32-.05-.2-.06a1.44 1.44 0 01-.31-.19.66.66 0 01-.19-.09 1.58 1.58 0 01-.24-.15L78 8.63l-.15-.15-.13-.14a1.58 1.58 0 01-.12-.15c0-.06-.09-.13-.14-.2a2.7 2.7 0 01-.28-.7 2.26 2.26 0 01-.18-.53 1.62 1.62 0 010-.22v-.27a2.43 2.43 0 01.08-.47.9.9 0 01.08-.23 2.6 2.6 0 01.19-.42c0-.06.08-.13.12-.18a2.6 2.6 0 01.3-.36l.23-.16.19-.15.25-.16.37-.14.25-.08.26-.07a2.48 2.48 0 012.26.63l.74.73.73.74c.49.5 1 1 1.49 1.51l1.84 1.84zm17.38-1.86a3.25 3.25 0 01-.47.85 2.32 2.32 0 01-1.8 1H92.7s-.06 0-.23-.16c.3-.27.6-.49.86-.76 1-.94 1.9-1.9 2.85-2.84l1-.94.22-.2a.91.91 0 01.16-.11 1 1 0 01.17-.1.05.05 0 01.05 0A1.5 1.5 0 0198 4h.11a1.15 1.15 0 01.17-.06h.12a1.27 1.27 0 01.28-.06h.17a2.72 2.72 0 012.11.74 2.75 2.75 0 01.72 2.82z"/><path d="M74.17 170.71a21.69 21.69 0 00-8.82-.46c-2.06.2-2.47 1.33-2.47 3v15.42c0 .71.25.85.86.88 1.37.08 2.73.15 4.09.14a27.2 27.2 0 003.83-.14 11.25 11.25 0 006.43-2.73 8.77 8.77 0 002.64-6.06c.27-4.55-1.62-8.49-6.56-10.05zm1.69 9.5c0 .21 0 .42-.08.61s0 .3-.08.44-.06.27-.1.41l-.12.39c-.08.22-.17.43-.27.64v.07a1.35 1.35 0 01-.21.23.41.41 0 01-.05.09l-.08.12-.08.1a3.2 3.2 0 01-.22.27 2.79 2.79 0 01-.35.34 4.21 4.21 0 01-.58.44c-.1.07-.21.12-.31.18l-.33.16-.26.1a6.69 6.69 0 01-.75.22l-.58.11-.63.08h-.66c-.66 0-1.33-.07-2-.07-.42 0-.49-.17-.48-.54v-4.93-4-1a.09.09 0 010-.05.81.81 0 010-.16.38.38 0 010-.16v-.05a.53.53 0 01.1-.06.37.37 0 01.15 0h.16a15.91 15.91 0 013.38.1 5.15 5.15 0 014.43 5.92z" fill="#723c96"/><path class="cls-2" d="M39.36 188.57c-.65-1.69-1.3-3.38-2-5-1.66-4.08-3.28-8.19-5.23-12.14a1.86 1.86 0 00-.56-.84 3.8 3.8 0 00-5.85 1.59q-2.7 6.1-5.21 12.28c-.67 1.64-1.31 3.28-2 5h4.56c.33 0 .37-.23.44-.44.41-1.08.81-2.16 1.19-3.24a.58.58 0 01.64-.45h7.17a.57.57 0 01.63.46c.39 1.07.81 2.15 1.22 3.22.08.22.12.45.44.45h4.73a1.41 1.41 0 00-.17-.89zm-12.78-7.52c.79-2.05 1.56-4.05 2.34-6.05h.15c.78 2 1.55 4 2.34 6zM125.76 155.93c0 .52-.08.72-.68.72h-14c-.49 0-.64-.12-.64-.63v-18.95c0-1.68.69-2.35 2.39-2.33a2.36 2.36 0 01.38 0c1.59.16 1.68.27 1.68 1.83V152c0 .64.19.77.79.75h5c.52 0 .65-.16.64-.65v-6c0-1.62.69-2.28 2.31-2.27h.13c1.77.06 2 .26 2 2-.01 3.35-.02 6.73 0 10.1z"/><path class="cls-6" d="M141.7 173.18l-.06.19c-.29 1.29-.29 1.29-1.6 1.29h-7.11c-.4 0-.56.08-.54.52a19.82 19.82 0 010 2.18c0 .43.14.52.54.52h5.51c2.17 0 3 1 2.47 3.16 0 .16-.1.32-.14.49-.12.53-.4.73-1 .72h-6.72c-.6 0-.69.18-.69.72v5.95c0 .41-.11.54-.53.53h-3.58c-.42 0-.54-.12-.53-.54v-15.73c0-2 .84-2.82 2.8-2.83h8.76c1.97-.03 2.77.93 2.42 2.83zM160.68 173c-.14 1.48-.35 1.67-1.79 1.67h-4.36c-.5 0-.64.12-.64.64v13.43c0 .6-.17.71-.71.69q-1.69-.06-3.39 0c-.46 0-.56-.14-.56-.57v-13.45c0-.56-.1-.77-.72-.74h-3.71c-1.83 0-2.51-.77-2.37-2.59v-.31c.23-1.35.34-1.45 1.7-1.45h14.08a3.94 3.94 0 011.08.12 1.66 1.66 0 011.32 1.6 6.15 6.15 0 01.07.96zM42.67 156.29c0 .43-.29.34-.53.34H28.97c-.44 0-.59-.11-.57-.56v-2.76c0-.5.16-.59.62-.58h8.31c.66 0 .76-.23.65-.78-.07-.3-.07-.63-.14-.94a3.93 3.93 0 00-4.39-3.33 7.74 7.74 0 00-2.14.31.66.66 0 01-.78-.24c-1.33-1.59-.86-3.26 1.1-3.89a8.33 8.33 0 0110.89 6.72 49 49 0 01.15 5.71z"/><path class="cls-4" d="M134.31 156c0 .47-.1.62-.59.6h-3.19c-.61 0-.69-.21-.69-.73v-15.93-3.06a2 2 0 012.22-2.2h.32c1.68.07 1.9.29 1.9 1.93v9.27c.02 3.42.01 6.79.03 10.12z"/><path class="cls-2" d="M123.9 188.66c0 .64-.19.78-.79.75h-3.39c-.35 0-.52 0-.52-.48v-16.56a1.81 1.81 0 011.73-2 4.88 4.88 0 011 0c1.76.06 1.93.24 1.93 2v7.8c.02 2.83 0 5.64.04 8.49zM88.47 188.78c0 .51-.14.65-.64.63h-3.58c-.36 0-.47-.11-.47-.47v-16.38c0-1.57.72-2.22 2.3-2.25h.44c1.76.07 1.92.24 1.92 2v7.8c.02 2.89.01 5.78.03 8.67z"/><path class="cls-4" d="M122.51 160.06a2.1 2.1 0 11-4.19 0 2.1 2.1 0 014.19 0zM12.76 140.52a2.11 2.11 0 01-2.15 2.07 2 2 0 01-2-2.15 2 2 0 012.09-2 2.06 2.06 0 012.06 2.08zM21.47 160.09a2.1 2.1 0 01-2.1 2.12 2.07 2.07 0 01-2.09-2.21 2 2 0 012.12-2 2.07 2.07 0 012.07 2.09zM26.65 160.11a2.08 2.08 0 01-2.11 2.1 2.05 2.05 0 01-2.06-2.13 2 2 0 012.07-2.08 2.05 2.05 0 012.1 2.11zM127.71 160.09a2.11 2.11 0 01-2.11 2.12 2 2 0 01-2.06-2.12 2 2 0 012-2.07 2.07 2.07 0 012.17 2.07zM7.55 140.45a2.1 2.1 0 11-4.19 0 2 2 0 012.1-2 2 2 0 012.09 2z"/><path class="cls-7" d="M173.9 150.82v1.58M173.9 152.47v-.07.07M75.48 182.06c-.08.22-.17.43-.27.64"/><path d="M29.07 175z" fill="#fcfbfd"/></g></g></svg>