<svg xmlns="http://www.w3.org/2000/svg" viewBox="0 0 20.86 20.9"><path d="M20.25 18.21c-.62.64-1.26 1.26-1.89 1.89a2.67 2.67 0 01-1.61.76h-1.01c-.51-.11-1-.19-1.53-.33a12.67 12.67 0 01-2.92-1.29 27.49 27.49 0 01-6.86-5.76A21.94 21.94 0 011.15 8.7 10.64 10.64 0 010 5.28a3.67 3.67 0 01.35-2.21 2.65 2.65 0 01.44-.6C1.4 1.84 2 1.24 2.64.62a2.07 2.07 0 012.95 0c1 .92 1.88 1.86 2.81 2.81a2 2 0 010 2.84 2.2 2.2 0 01-.62.38 2.11 2.11 0 00-1.25 1.14A1.74 1.74 0 006.45 9a7.14 7.14 0 001.72 2.93A9.46 9.46 0 0011 14.06a2.71 2.71 0 001.52.37 1.87 1.87 0 001.61-1.17 2.19 2.19 0 01.82-1.11 2 2 0 012.46.27c1 .95 1.95 1.92 2.9 2.9a2.07 2.07 0 01-.06 2.89z" fill="#fff" data-name="Layer 2"/></svg>