<svg xmlns="http://www.w3.org/2000/svg" viewBox="0 0 19.78 14.84"><defs><style>.cls-1{fill:#4d4d4d;}</style></defs><title>Asset 39</title><g id="Layer_2" data-name="Layer 2"><g id="Layer_2-2" data-name="Layer 2"><path class="cls-1" d="M19.69,1.3A1.83,1.83,0,0,0,18,0h-16A1.85,1.85,0,0,0,.06,1.41a2.07,2.07,0,0,0-.06.5v11a1.85,1.85,0,0,0,1.9,1.91h16a1.85,1.85,0,0,0,1.87-1.52s0,0,0-.07V1.59Zm-18,0H18.13v.05L9.89,8.46,1.64,1.31ZM17.85,13.6H1.93a.63.63,0,0,1-.69-.69V2.59L4,5l5.43,4.7a.63.63,0,0,0,.95,0l8-6.93.16-.14a1.21,1.21,0,0,1,0,.18v10.1A.62.62,0,0,1,17.85,13.6Z"/></g></g></svg>