<svg xmlns="http://www.w3.org/2000/svg" viewBox="0 0 31.6 21.62"><path d="M31.39 6.37a11.42 11.42 0 00-1-4.12 3.35 3.35 0 00-3-2C25.63.11 23.92 0 22.2 0Q14.62 0 7.05.05C6 .05 5 .15 3.91.24a3.21 3.21 0 00-2.63 1.9A10.68 10.68 0 00.25 6c-.09.83-.13 1.73-.2 2.62C0 8.73 0 8.84 0 9v3.71c0 .57.08 1.16.13 1.74A14.67 14.67 0 001 18.8 3.89 3.89 0 002.75 21a5.11 5.11 0 002.34.47c4.94.06 9.89.12 14.83.14 2.19 0 4.38-.08 6.57-.14a11.24 11.24 0 001.41-.15 3.28 3.28 0 002.41-1.88 10.38 10.38 0 001-3.74 45.55 45.55 0 00.08-9.33zM11.87 16.71V4.88l9.85 5.92z" fill="#fff" opacity=".74" data-name="Layer 2"/></svg>