<svg xmlns="http://www.w3.org/2000/svg" viewBox="0 0 42.21 37.54"><defs><style>.cls-1{fill:#fff;}</style></defs><title>Asset 4</title><g id="Layer_2" data-name="Layer 2"><g id="Layer_2-2" data-name="Layer 2"><path class="cls-1" d="M42.14,11.26a13.59,13.59,0,0,0-.91-3.77H38.55a11.78,11.78,0,0,1-1,11.9,34.54,34.54,0,0,1-6.22,6.78c-3.3,2.92-6.65,5.78-10,8.66l-.28.22c-.87-.75-1.74-1.49-2.59-2.24-3-2.64-6.08-5.27-9.07-8a28.4,28.4,0,0,1-4.8-5.46A11.54,11.54,0,0,1,3.16,8.8,8.83,8.83,0,0,1,9.91,2.68,8.16,8.16,0,0,1,18,5.24a25,25,0,0,1,1.84,2.37,1.55,1.55,0,0,0,2.58,0c.15-.21.28-.43.43-.65a10.15,10.15,0,0,1,3.92-3.61,9,9,0,0,1,2.55-.81V.07a10,10,0,0,0-1.4.23,11.46,11.46,0,0,0-6.3,4.16c-.16.19-.32.39-.49.62-.2-.25-.34-.45-.5-.64C17.74,1,14.12-.64,9.61.23A11.17,11.17,0,0,0,.88,7.84,13.89,13.89,0,0,0,2.54,20.68a29.73,29.73,0,0,0,5.21,6c3.86,3.43,7.77,6.8,11.67,10.19a2.45,2.45,0,0,0,3.49-.08q4.5-3.85,9-7.75a46.6,46.6,0,0,0,7-7.18,16.1,16.1,0,0,0,2.88-5.78c.19-.81.3-1.64.44-2.47V11.7C42.19,11.55,42.15,11.41,42.14,11.26Z"/></g></g></svg>