<svg xmlns="http://www.w3.org/2000/svg" viewBox="0 0 178.73 189.9"><defs><style>.cls-1{fill:#723b96;}.cls-2{fill:#713b96;}.cls-3{fill:#1dbab1;}.cls-4{fill:#723c97;}.cls-5{fill:#723c96;}.cls-6{fill:#713a96;}.cls-7{fill:none;}.cls-8{fill:#fcfbfd;}</style></defs><title>Asset 1</title><g id="Layer_2" data-name="Layer 2"><g id="Layer_2-2" data-name="Layer 2"><path class="cls-1" d="M115.76,188.84c0,.48-.15.61-.6.68-1,.15-2,.13-3,.38h-4.22c-.77-.15-1.54-.27-2.3-.46C100,188,98,183.66,98.4,178.78c.46-5.29,4.33-8.66,9.84-9a11.52,11.52,0,0,1,5.5.88c2.46,1.13,2.66,3.3.48,4.92-.26.19-.37.11-.58-.05a7.08,7.08,0,0,0-7-1.13c-2.29.78-3.23,2.64-3.42,4.94a7.27,7.27,0,0,0,.17,2.23,4.94,4.94,0,0,0,4.62,3.93,13.34,13.34,0,0,0,2.68.06c.4,0,.5-.16.49-.54,0-.73,0-1.45,0-2.18,0-.4-.13-.51-.51-.5a17.77,17.77,0,0,1-1.79,0,1.71,1.71,0,0,1-1.74-1.83,4.62,4.62,0,0,1,0-.83c.16-1.35.38-1.54,1.73-1.54s2.73,0,4.1,0c1.89,0,2.73.88,2.74,2.75C115.75,183.55,115.73,186.2,115.76,188.84Z"/><path class="cls-2" d="M24.71,145.74c0-1.71,0-1.71-1.72-1.89-1.88-.21-2.72.54-2.73,2.42s0,4,0,5.95c0,.21.11.53-.28.52a48.18,48.18,0,0,1-5.24-.09,1.23,1.23,0,0,1-1-1.07,6.54,6.54,0,0,1-.12-1.53c0-1.92,0-3.84,0-5.76,0-.2.1-.49-.3-.48-2.53.07-5.08-.22-7.59.3-2.92.6-5.07,2.07-5.59,5.25,0,0-.06.06-.09.09v2.3c.11.06.11.17.13.27a5.52,5.52,0,0,0,4.08,4.55A7.36,7.36,0,0,0,11,155.43c.15-.12.29-.36.52-.07a3.87,3.87,0,0,0,3.33,1.27q4.64,0,9.27,0c.48,0,.61-.12.6-.6C24.7,152.61,24.71,149.17,24.71,145.74ZM9,151.11a2.21,2.21,0,0,1-2.57,1.51,2.06,2.06,0,0,1-1.9-2.18,3.67,3.67,0,0,1,.11-.78c0-.08,0-.16.08-.23A1.65,1.65,0,0,1,4.9,149l.1-.15a1.31,1.31,0,0,1,.11-.12s0,0,0,0a.57.57,0,0,1,.11-.11l.15-.13a.72.72,0,0,1,.15-.11,1.88,1.88,0,0,1,.24-.14,1,1,0,0,1,.21-.1l.25-.1.24-.07.17,0,.15,0,.31-.06.32,0c1.67-.11,1.67-.11,1.67,1.61A6.78,6.78,0,0,1,9,151.11Z"/><path class="cls-1" d="M14.86,188.45a8.92,8.92,0,0,1-3.77,1.32c-.15,0-.34-.05-.46.13H7a19.66,19.66,0,0,0-2.4-.5A18,18,0,0,1,.7,187.92c-.36-.19-.41-.38-.21-.74.51-.91,1-1.84,1.45-2.78.19-.39.34-.38.71-.19a13.35,13.35,0,0,0,8.12,1.35,3.16,3.16,0,0,0,.79-.25,1.35,1.35,0,0,0,.85-1.32,1.33,1.33,0,0,0-.79-1.28,10.05,10.05,0,0,0-3-.74,23.36,23.36,0,0,1-4.28-1,5,5,0,0,1-3.56-4.54A5.5,5.5,0,0,1,3.56,171a11,11,0,0,1,6.64-1.16,13.52,13.52,0,0,1,3.56.69c.26.1.52.2.77.32,2.22,1,2.49,3,.68,4.62a.47.47,0,0,1-.7.06A10,10,0,0,0,7.18,174a2.22,2.22,0,0,0-1,.43,1.36,1.36,0,0,0,.24,2.39,17.07,17.07,0,0,0,3.65.89,21.61,21.61,0,0,1,4,1.08,4.8,4.8,0,0,1,3.24,4.07A5.53,5.53,0,0,1,14.86,188.45Z"/><path class="cls-1" d="M178.73,182.61v1.92c-.07.26-.12.53-.2.79-.66,2.41-2.44,3.56-4.69,4.19a15.54,15.54,0,0,0-1.77.39h-3.46c-.84-.17-1.69-.32-2.53-.51a15.8,15.8,0,0,1-3.89-1.43c-.38-.2-.53-.37-.26-.82.51-.86,1-1.75,1.39-2.66.2-.4.33-.49.79-.26a13.34,13.34,0,0,0,8.12,1.34,2.15,2.15,0,0,0,1.2-.55,1.46,1.46,0,0,0-.53-2.38,16,16,0,0,0-3.54-.79,18.22,18.22,0,0,1-3.65-.91,5,5,0,0,1-3.47-4.42,5.58,5.58,0,0,1,2.61-5.41,8.52,8.52,0,0,1,4.11-1.25,16.19,16.19,0,0,1,6.07.65,6.82,6.82,0,0,1,1.12.47c2.08,1.05,2.24,3.21.36,4.63-.27.2-.4.06-.59-.07a10.18,10.18,0,0,0-7.4-1.49,2.41,2.41,0,0,0-.94.39,1.38,1.38,0,0,0,.22,2.43,17.66,17.66,0,0,0,3.65.88,23.24,23.24,0,0,1,3.83,1,4.91,4.91,0,0,1,3.36,3.77S178.7,182.58,178.73,182.61Z"/><path class="cls-2" d="M59.16,181.94c-.21,4.44-2.67,7.15-7.09,7.86-.08,0-.14.07-.22.1H48.91a6.16,6.16,0,0,0-1.35-.31,7.5,7.5,0,0,1-5.83-6.46,15.19,15.19,0,0,1-.15-2.23c0-2.78,0-5.54,0-8.32,0-1.57.68-2.24,2.26-2.27h.38c1.83.05,2,.22,2,2q0,4.21,0,8.45a7.91,7.91,0,0,0,.37,2.51,3.11,3.11,0,0,0,2.4,2.17,6.85,6.85,0,0,0,2.67,0,3.18,3.18,0,0,0,2.6-2.51,8.19,8.19,0,0,0,.28-2.15v-8.19c0-1.62.68-2.3,2.29-2.33h.38c1.82.06,2,.25,2,2C59.2,175.54,59.32,178.74,59.16,181.94Z"/><path class="cls-3" d="M116.21,80.81a5.32,5.32,0,0,1,.18,7.75q-11.65,11.64-23.31,23.3a5.23,5.23,0,0,1-7.62,0Q73.78,100.22,62.11,88.53a5.22,5.22,0,0,1,0-7.52Q67,76.1,71.89,71.24a5.28,5.28,0,1,1,7.39,7.54c-1.84,1.84-3.67,3.7-5.53,5.52-.36.35-.43.54,0,.93q7.57,7.51,15.08,15.08c.39.4.58.32.93,0q7.5-7.53,15-15c.42-.42.38-.61,0-1Q83.59,63.13,62.42,42a5.43,5.43,0,0,1-1.75-4,5,5,0,0,1,1.44-3.59Q70.29,26.18,78.49,18a5.14,5.14,0,0,1,3.73-1.43h7.55c2.48,0,5,0,7.43,0a5.57,5.57,0,0,1,4.13,1.71q7.59,7.62,15.2,15.21a5.24,5.24,0,0,1,0,7.7L107,50.7a5.26,5.26,0,0,1-9.07-4,5.15,5.15,0,0,1,1.6-3.46c1.83-1.82,3.65-3.65,5.49-5.46.34-.33.36-.51,0-.85q-4.72-4.69-9.42-9.41a1.07,1.07,0,0,0-.84-.36c-3.34,0-6.69,0-10,0a1.18,1.18,0,0,0-.89.4q-5,5-10,10c-.4.39-.33.58,0,.94Q95,59.64,116.21,80.81Z"/><path class="cls-2" d="M100.5,145.77c0-1.7-.14-1.84-1.88-1.94h-.13c-1.71,0-2.39.61-2.4,2.31s0,3.42,0,5.12c0,1.54,0,1.54-1.57,1.5-1.32,0-1.81-.52-1.82-1.84v-5.12c0-1.73-.16-1.89-1.92-2h-.12c-1.67,0-2.34.63-2.35,2.29s0,3.16,0,4.74a1.73,1.73,0,1,1-3.45.12c0-1.73,0-3.45,0-5.18s-.14-1.86-1.88-2-2.55.59-2.55,2.41c0,1.54,0,3.07,0,4.61,0,1.3-.52,1.81-1.83,1.88-.68.05-1.36,0-2,0-1.72,0-3.45,0-5.18,0a2.53,2.53,0,0,1-2.67-2.52,2.68,2.68,0,0,1,2.45-2.85,4.3,4.3,0,0,1,3.25.84c.19.14.34.36.61.14a2.84,2.84,0,0,0,1.25-2.13A2,2,0,0,0,75,144.4a5.69,5.69,0,0,0-1.11-.47,8.55,8.55,0,0,0-4.05-.25c-4.94.84-6.83,5.27-4.88,9.07H59.37c-.34,0-.35-.19-.35-.44a24.18,24.18,0,0,0-.12-2.82,6.1,6.1,0,0,0-5.12-5.75,8.69,8.69,0,0,0-3.37-.05A6.51,6.51,0,0,0,45,150.24a6.08,6.08,0,0,0,5.4,6.26,28.61,28.61,0,0,0,3.7.14c.18,0,.44-.13.46.25a2.79,2.79,0,0,1-2.4,2.8,6.07,6.07,0,0,1-2.89-.35c-.35-.14-.47,0-.57.29-.24.84-.48,1.68-.78,2.5-.15.4,0,.56.35.69a10.63,10.63,0,0,0,4.4.59,6.14,6.14,0,0,0,5.76-4.31,5.93,5.93,0,0,0,.43-1.79c0-.63.31-.69.84-.69,6.41,0,12.84,0,19.26,0a4.35,4.35,0,0,0,3-1,.61.61,0,0,1,1,0,5.76,5.76,0,0,0,7.39-.12c.2-.16.29-.16.45,0a3.09,3.09,0,0,0,2.57,1.05c2.19,0,4.39,0,6.59,0,.51,0,.63-.13.63-.63C100.49,152.59,100.5,149.18,100.5,145.77Zm-45.85,6.65c0,.25-.12.33-.35.33H53a7.65,7.65,0,0,1-1.72-.1l-.37-.11-.17-.08-.17-.08a2.76,2.76,0,0,1-.56-.45,2.1,2.1,0,0,1-.26-.33,2.6,2.6,0,0,1-.4-1.53,3.19,3.19,0,0,1,.08-.7,1.55,1.55,0,0,1,0-.21l.06-.2c0-.07.05-.13.07-.19s.06-.12.09-.18a.8.8,0,0,1,.08-.16l.09-.14.09-.12a2.09,2.09,0,0,1,.2-.22.48.48,0,0,1,.11-.09,1.79,1.79,0,0,1,.63-.36,2,2,0,0,1,.42-.11l.31,0h.61a.85.85,0,0,1,.23,0,2,2,0,0,1,.26.06l.24.08.18.08a2.29,2.29,0,0,1,.41.28.8.8,0,0,1,.13.13,1.74,1.74,0,0,1,.25.29,2.93,2.93,0,0,1,.38.75c0,.1.07.2.1.3a2.73,2.73,0,0,1,.1.48.5.5,0,0,1,0,.16,2.63,2.63,0,0,1,0,.49,3,3,0,0,1,0,.42C54.66,151.42,54.65,151.92,54.65,152.42Z"/><path class="cls-2" d="M178.19,147.59a7.18,7.18,0,0,0-4.27-6.49,11.89,11.89,0,0,0-6.68-.94,7.47,7.47,0,0,0-2.45.69,2,2,0,0,0-1.13,1.74c0,.31.25.71,0,.9s-.64.13-1,.17l-.19,0A6.56,6.56,0,0,0,157,148.6a15,15,0,0,0-.19,2.41c-.06,1.09-.48,1.6-1.54,1.67-1.21.09-2.43,0-3.64.07-.32,0-.32-.18-.34-.41,0-.49-.06-1-.12-1.46a8.37,8.37,0,0,0-11-7c-2.35.78-2,2.66-1,4a.51.51,0,0,0,.62.15,8.58,8.58,0,0,1,2-.3c2.89-.12,4.57,1.44,4.72,4.33,0,.58-.13.71-.69.7-2.75,0-5.5,0-8.25,0-.53,0-.66.15-.64.64a24.29,24.29,0,0,1,0,2.56c0,.57.15.71.71.7,5.78,0,11.56,0,17.34,0a4.55,4.55,0,0,0,3.57-1.39c.19-.2.32-.25.58,0a7.15,7.15,0,0,0,4.49,1.41h14c.35,0,.54,0,.53-.47C178.23,153.31,178.32,150.44,178.19,147.59Zm-11.77,4.29V152a1.1,1.1,0,0,1,0,.18.64.64,0,0,1,0,.07.24.24,0,0,1,0,.09.36.36,0,0,1-.08.15.09.09,0,0,1-.06.06.84.84,0,0,1-.49.15h-1.17c-.27,0-.53,0-.8,0a2.14,2.14,0,0,1-.43-.07l-.39-.11-.35-.16a2.23,2.23,0,0,1-.3-.2A1.55,1.55,0,0,1,162,152a2.43,2.43,0,0,1-.41-.58,3.14,3.14,0,0,1-.26-.73,2.77,2.77,0,0,1,0-1.28c0-.09.05-.18.08-.28a.3.3,0,0,1,0-.08.52.52,0,0,1,.06-.16,2.17,2.17,0,0,1,.19-.33,1.55,1.55,0,0,1,.19-.24,1.44,1.44,0,0,1,.46-.39,2.74,2.74,0,0,1,3-.11,1.76,1.76,0,0,1,.34.25l.14.14.12.16a1.61,1.61,0,0,1,.23.43.88.88,0,0,1,.07.23.06.06,0,0,1,0,.06,2.86,2.86,0,0,1,.07.28c0,.11,0,.21,0,.32s0,.22,0,.32a.48.48,0,0,1,0,.12.34.34,0,0,1,0,.1c0,.33,0,.66,0,1S166.43,151.69,166.42,151.88Zm7.48-1.06v1.65a.29.29,0,0,1-.23.26l-.08,0h-.14c-.72,0-1.45,0-2.17,0a.64.64,0,0,1-.38-.07.38.38,0,0,1-.14-.31v-.18a16.72,16.72,0,0,0-.15-3.32c-.05-.28-.11-.55-.18-.82a6.07,6.07,0,0,0-1.52-2.71,6.48,6.48,0,0,0-2.14-1.38,8.3,8.3,0,0,1,4.23.22,4,4,0,0,1,2.84,3.73C173.92,148.88,173.91,149.85,173.9,150.82Z"/><path class="cls-4" d="M101.62.56a6.25,6.25,0,0,0-7.05,1.28C92.93,3.37,91.38,5,89.81,6.59c-.32.33-.47.3-.78,0C87.46,5,85.92,3.35,84.27,1.83a6.25,6.25,0,0,0-7-1.27,6.51,6.51,0,0,0,2.55,12.5c3.22,0,6.45,0,9.66,0h4.8c1.6,0,3.21,0,4.8,0a6.54,6.54,0,0,0,6.58-6.54A6.47,6.47,0,0,0,101.62.56ZM84.3,9.3c-1.51,0-3,0-4.54,0l-.24,0-.13,0-.32-.05-.2-.06A1.44,1.44,0,0,1,78.56,9a.66.66,0,0,1-.19-.09,1.58,1.58,0,0,1-.24-.15L78,8.63l-.15-.15-.13-.14a1.58,1.58,0,0,1-.12-.15c0-.06-.09-.13-.14-.2a2.7,2.7,0,0,1-.28-.7h0A2.26,2.26,0,0,1,77,6.76a1.62,1.62,0,0,1,0-.22c0-.09,0-.18,0-.27a2.43,2.43,0,0,1,.08-.47.9.9,0,0,1,.08-.23,2.6,2.6,0,0,1,.19-.42c0-.06.08-.13.12-.18a2.6,2.6,0,0,1,.3-.36L78,4.45l.19-.15.25-.16L78.81,4l.25-.08.26-.07a2.48,2.48,0,0,1,2.26.63l.74.73.73.74c.49.5,1,1,1.49,1.51L86.38,9.3Zm17.38-1.86a3.25,3.25,0,0,1-.47.85,2.32,2.32,0,0,1-1.8,1c-2.23,0-4.47,0-6.71,0,0,0-.06,0-.23-.16.3-.27.6-.49.86-.76,1-.94,1.9-1.9,2.85-2.84l1-.94.22-.2a.91.91,0,0,1,.16-.11l0,0a1,1,0,0,1,.17-.1.05.05,0,0,1,.05,0A1.5,1.5,0,0,1,98,4L98.11,4a1.15,1.15,0,0,1,.17-.06l.12,0a1.27,1.27,0,0,1,.28-.06l.17,0a2.72,2.72,0,0,1,2.11.74A2.75,2.75,0,0,1,101.68,7.44Z"/><path class="cls-5" d="M74.17,170.71a21.69,21.69,0,0,0-8.82-.46c-2.06.2-2.47,1.33-2.47,3q0,7.71,0,15.42c0,.71.25.85.86.88,1.37.08,2.73.15,4.09.14a27.2,27.2,0,0,0,3.83-.14,11.25,11.25,0,0,0,6.43-2.73,8.77,8.77,0,0,0,2.64-6.06C81,176.21,79.11,172.27,74.17,170.71Zm1.69,9.5c0,.21,0,.42-.08.61s0,.3-.08.44-.06.27-.1.41l-.12.39c-.08.22-.17.43-.27.64l0,.07h0A1.35,1.35,0,0,1,75,183h0a.41.41,0,0,1-.05.09l-.08.12-.08.1h0l0,0a3.2,3.2,0,0,1-.22.27,2.79,2.79,0,0,1-.35.34,4.21,4.21,0,0,1-.58.44c-.1.07-.21.12-.31.18l0,0-.33.16,0,0-.26.1a6.69,6.69,0,0,1-.75.22l-.58.11h0l-.63.08-.66,0c-.66,0-1.33-.07-2-.07-.42,0-.49-.17-.48-.54,0-1.64,0-3.28,0-4.93,0-1.33,0-2.66,0-4,0-.33,0-.67,0-1a.09.09,0,0,1,0-.05.81.81,0,0,1,0-.16.38.38,0,0,1,0-.16l0-.05s0,0,0,0l0,0,0,0a.53.53,0,0,1,.1-.06.37.37,0,0,1,.15,0h.16a15.91,15.91,0,0,1,3.38.1A5.15,5.15,0,0,1,75.86,180.21Z"/><path class="cls-2" d="M39.36,188.57c-.65-1.69-1.3-3.38-2-5-1.66-4.08-3.28-8.19-5.23-12.14a1.86,1.86,0,0,0-.56-.84,3.8,3.8,0,0,0-5.85,1.59q-2.7,6.1-5.21,12.28c-.67,1.64-1.31,3.28-2,5,1.58,0,3.06,0,4.56,0,.33,0,.37-.23.44-.44.41-1.08.81-2.16,1.19-3.24a.58.58,0,0,1,.64-.45q3.59,0,7.17,0a.57.57,0,0,1,.63.46c.39,1.07.81,2.15,1.22,3.22.08.22.12.45.44.45h4.73A1.41,1.41,0,0,0,39.36,188.57Zm-12.78-7.52c.79-2.05,1.56-4.05,2.34-6.05h.15c.78,2,1.55,4,2.34,6Z"/><path class="cls-2" d="M125.76,155.93c0,.52-.08.72-.68.72q-7,0-14,0c-.49,0-.64-.12-.64-.63,0-3.2,0-6.4,0-9.6v-9.35c0-1.68.69-2.35,2.39-2.33a2.36,2.36,0,0,1,.38,0c1.59.16,1.68.27,1.68,1.83,0,5.14,0,10.28,0,15.43,0,.64.19.77.79.75,1.66,0,3.33,0,5,0,.52,0,.65-.16.64-.65,0-2,0-4,0-6,0-1.62.69-2.28,2.31-2.27h.13c1.77.06,2,.26,2,2C125.75,149.18,125.74,152.56,125.76,155.93Z"/><path class="cls-6" d="M141.7,173.18l-.06.19c-.29,1.29-.29,1.29-1.6,1.29h-7.11c-.4,0-.56.08-.54.52a19.82,19.82,0,0,1,0,2.18c0,.43.14.52.54.52,1.84,0,3.67,0,5.51,0,2.17,0,3,1,2.47,3.16,0,.16-.1.32-.14.49-.12.53-.4.73-1,.72-2.24,0-4.48,0-6.72,0-.6,0-.69.18-.69.72,0,2,0,4,0,5.95,0,.41-.11.54-.53.53-1.19,0-2.39,0-3.58,0-.42,0-.54-.12-.53-.54,0-2.7,0-5.41,0-8.12v-7.61c0-2,.84-2.82,2.8-2.83h8.76C141.25,170.32,142.05,171.28,141.7,173.18Z"/><path class="cls-6" d="M160.68,173c-.14,1.48-.35,1.67-1.79,1.67s-2.91,0-4.36,0c-.5,0-.64.12-.64.64,0,4.48,0,9,0,13.43,0,.6-.17.71-.71.69q-1.69-.06-3.39,0c-.46,0-.56-.14-.56-.57,0-4.49,0-9,0-13.45,0-.56-.1-.77-.72-.74-1.23,0-2.47,0-3.71,0-1.83,0-2.51-.77-2.37-2.59l0-.31c.23-1.35.34-1.45,1.7-1.45h14.08a3.94,3.94,0,0,1,1.08.12,1.66,1.66,0,0,1,1.32,1.6A6.15,6.15,0,0,1,160.68,173Z"/><path class="cls-6" d="M42.67,156.29c0,.43-.29.34-.53.34H35.49c-2.17,0-4.35,0-6.52,0-.44,0-.59-.11-.57-.56,0-.92,0-1.84,0-2.76,0-.5.16-.59.62-.58,2.76,0,5.54,0,8.31,0,.66,0,.76-.23.65-.78-.07-.3-.07-.63-.14-.94a3.93,3.93,0,0,0-4.39-3.33,7.74,7.74,0,0,0-2.14.31.66.66,0,0,1-.78-.24c-1.33-1.59-.86-3.26,1.1-3.89a8.33,8.33,0,0,1,10.89,6.72A49,49,0,0,1,42.67,156.29Z"/><path class="cls-4" d="M134.31,156c0,.47-.1.62-.59.6-1.06,0-2.13,0-3.19,0-.61,0-.69-.21-.69-.73,0-5.31,0-10.62,0-15.93,0-1,0-2,0-3.06a2,2,0,0,1,2.22-2.2h.32c1.68.07,1.9.29,1.9,1.93v9.27C134.3,149.3,134.29,152.67,134.31,156Z"/><path class="cls-2" d="M123.9,188.66c0,.64-.19.78-.79.75-1.12,0-2.25,0-3.39,0-.35,0-.52,0-.52-.48,0-5.52,0-11,0-16.56a1.81,1.81,0,0,1,1.73-2,4.88,4.88,0,0,1,1,0c1.76.06,1.93.24,1.93,2v7.8C123.88,183,123.86,185.81,123.9,188.66Z"/><path class="cls-2" d="M88.47,188.78c0,.51-.14.65-.64.63-1.19,0-2.39,0-3.58,0-.36,0-.47-.11-.47-.47,0-5.46,0-10.92,0-16.38,0-1.57.72-2.22,2.3-2.25h.44c1.76.07,1.92.24,1.92,2v7.8C88.46,183,88.45,185.89,88.47,188.78Z"/><path class="cls-4" d="M122.51,160.06a2.1,2.1,0,1,1-4.19,0,2.1,2.1,0,0,1,4.19,0Z"/><path class="cls-4" d="M12.76,140.52a2.11,2.11,0,0,1-2.15,2.07,2,2,0,0,1-2-2.15,2,2,0,0,1,2.09-2A2.06,2.06,0,0,1,12.76,140.52Z"/><path class="cls-4" d="M21.47,160.09a2.1,2.1,0,0,1-2.1,2.12A2.07,2.07,0,0,1,17.28,160a2,2,0,0,1,2.12-2A2.07,2.07,0,0,1,21.47,160.09Z"/><path class="cls-4" d="M26.65,160.11a2.08,2.08,0,0,1-2.11,2.1,2.05,2.05,0,0,1-2.06-2.13A2,2,0,0,1,24.55,158,2.05,2.05,0,0,1,26.65,160.11Z"/><path class="cls-4" d="M127.71,160.09a2.11,2.11,0,0,1-2.11,2.12,2,2,0,0,1-2.06-2.12,2,2,0,0,1,2-2.07A2.07,2.07,0,0,1,127.71,160.09Z"/><path class="cls-4" d="M7.55,140.45a2.1,2.1,0,1,1-4.19,0,2,2,0,0,1,2.1-2A2,2,0,0,1,7.55,140.45Z"/><path class="cls-7" d="M173.9,150.82v1.58"/><path class="cls-7" d="M173.9,152.47v-.07s0,0,0,.07"/><path class="cls-7" d="M75.48,182.06c-.08.22-.17.43-.27.64"/><path class="cls-8" d="M29.07,175h0Z"/></g></g></svg>