<svg id="Layer_1" data-name="Layer 1" xmlns="http://www.w3.org/2000/svg" viewBox="0 0 178.68 189.91"><defs><style>.cls-1{fill:#efefef;}</style></defs><title>Asset 1logo</title><g id="Layer_2" data-name="Layer 2"><g id="Layer_2-2" data-name="Layer 2-2"><path class="cls-1" d="M115.76,188.84c0,.48-.15.61-.6.68-1,.15-2,.13-3,.38h-4.22c-.77-.15-1.54-.27-2.3-.46C100,188,98,183.66,98.4,178.78c.46-5.29,4.33-8.66,9.84-9a11.51,11.51,0,0,1,5.5.88c2.46,1.13,2.66,3.3.48,4.92-.26.19-.37.11-.58-.05a7.09,7.09,0,0,0-7-1.13c-2.29.78-3.23,2.64-3.42,4.94a7.27,7.27,0,0,0,.17,2.23A4.94,4.94,0,0,0,108,185.5a13.34,13.34,0,0,0,2.68.06c.4,0,.5-.16.49-.54v-2.18c0-.4-.13-.51-.51-.5a17.81,17.81,0,0,1-1.79,0,1.71,1.71,0,0,1-1.74-1.68v-.15a5.75,5.75,0,0,1,0-.83c.16-1.35.38-1.54,1.73-1.54H113c1.89,0,2.73.88,2.74,2.75C115.75,183.55,115.73,186.2,115.76,188.84Z" transform="translate(-0.05 0.01)"/><path class="cls-1" d="M24.71,145.74c0-1.71,0-1.71-1.72-1.89-1.88-.21-2.72.54-2.73,2.42s0,4,0,5.95c0,.21.11.53-.28.52a45.78,45.78,0,0,1-5.24-.09,1.23,1.23,0,0,1-1-1.07,6.54,6.54,0,0,1-.12-1.53v-5.76c0-.2.1-.49-.3-.48-2.53.07-5.08-.22-7.59.3-2.92.6-5.07,2.07-5.59,5.25l-.09.09v2.3c.11.06.11.17.13.27a5.53,5.53,0,0,0,4.08,4.55A7.37,7.37,0,0,0,11,155.43c.15-.12.29-.36.52-.07a3.88,3.88,0,0,0,3.33,1.27h9.27c.48,0,.61-.12.6-.6C24.7,152.61,24.71,149.17,24.71,145.74ZM9,151.11a2.21,2.21,0,0,1-2.57,1.51,2.07,2.07,0,0,1-1.9-2.18,4.19,4.19,0,0,1,.11-.78.26.26,0,0,1,.08-.23A1.63,1.63,0,0,1,4.9,149l.1-.15.11-.12h0l.11-.11.15-.13.15-.11.24-.14.21-.1.25-.1.24-.07h.32l.31-.06h.32c1.67-.11,1.67-.11,1.67,1.61A6.53,6.53,0,0,1,9,151.11Z" transform="translate(-0.05 0.01)"/><path class="cls-1" d="M14.86,188.45a8.92,8.92,0,0,1-3.77,1.32c-.15,0-.34-.05-.46.13H7a19.66,19.66,0,0,0-2.4-.5,18.21,18.21,0,0,1-3.9-1.48c-.36-.19-.41-.38-.21-.74.51-.91,1-1.84,1.45-2.78.19-.39.34-.38.71-.19a13.36,13.36,0,0,0,8.12,1.35,3.16,3.16,0,0,0,.79-.25,1.44,1.44,0,0,0,.06-2.6,10.08,10.08,0,0,0-3-.74,23.34,23.34,0,0,1-4.28-1,5,5,0,0,1-3.56-4.54A5.5,5.5,0,0,1,3.56,171a11,11,0,0,1,6.64-1.16,13.52,13.52,0,0,1,3.56.69c.26.1.52.2.77.32,2.22,1,2.49,3,.68,4.62a.48.48,0,0,1-.66.1l0,0A10,10,0,0,0,7.18,174a2.29,2.29,0,0,0-1,.43,1.35,1.35,0,0,0,.24,2.39,16.92,16.92,0,0,0,3.65.89,21.51,21.51,0,0,1,4,1.08,4.79,4.79,0,0,1,3.24,4.07A5.53,5.53,0,0,1,14.86,188.45Z" transform="translate(-0.05 0.01)"/><path class="cls-1" d="M178.73,182.61v1.92c-.07.26-.12.53-.2.79-.66,2.41-2.44,3.56-4.69,4.19a17.42,17.42,0,0,0-1.77.39h-3.46c-.84-.17-1.69-.32-2.53-.51a15.55,15.55,0,0,1-3.89-1.43c-.38-.2-.53-.37-.26-.82a23.21,23.21,0,0,0,1.39-2.66c.2-.4.33-.49.79-.26a13.35,13.35,0,0,0,8.12,1.34,2.15,2.15,0,0,0,1.2-.55,1.45,1.45,0,0,0,0-2.06,1.47,1.47,0,0,0-.5-.32,15.91,15.91,0,0,0-3.54-.79,18.4,18.4,0,0,1-3.65-.91,5,5,0,0,1-3.47-4.42,5.57,5.57,0,0,1,2.61-5.41,8.55,8.55,0,0,1,4.11-1.25,16.17,16.17,0,0,1,6.07.65,6.47,6.47,0,0,1,1.12.47c2.08,1.05,2.24,3.21.36,4.63-.27.2-.4.06-.59-.07a10.16,10.16,0,0,0-7.4-1.49,2.3,2.3,0,0,0-.94.39,1.38,1.38,0,0,0,.22,2.43,17.66,17.66,0,0,0,3.65.88,23.2,23.2,0,0,1,3.83,1,4.91,4.91,0,0,1,3.36,3.77Z" transform="translate(-0.05 0.01)"/><path class="cls-1" d="M59.16,181.94c-.21,4.44-2.67,7.15-7.09,7.86-.08,0-.14.07-.22.1H48.91a6.29,6.29,0,0,0-1.35-.31,7.5,7.5,0,0,1-5.83-6.46,16.6,16.6,0,0,1-.15-2.23v-8.32c0-1.57.68-2.24,2.26-2.27h.38c1.83.05,2,.22,2,2v8.45a7.91,7.91,0,0,0,.37,2.51,3.11,3.11,0,0,0,2.4,2.17,6.67,6.67,0,0,0,2.67,0,3.18,3.18,0,0,0,2.6-2.51,8.19,8.19,0,0,0,.28-2.15v-8.19c0-1.62.68-2.3,2.29-2.33h.38c1.82.06,2,.25,2,2C59.2,175.54,59.32,178.74,59.16,181.94Z" transform="translate(-0.05 0.01)"/><path class="cls-1" d="M116.21,80.81a5.32,5.32,0,0,1,.41,7.51l-.23.24-23.31,23.3a5.23,5.23,0,0,1-7.39.23l-.23-.23Q73.78,100.22,62.11,88.53A5.22,5.22,0,0,1,62,81.15l.14-.14Q67,76.1,71.89,71.24a5.28,5.28,0,0,1,7.55,7.38c0,.06-.11.11-.16.16-1.84,1.84-3.67,3.7-5.53,5.52-.36.35-.43.54,0,.93q7.57,7.51,15.08,15.08c.39.4.58.32.93,0q7.5-7.53,15-15c.42-.42.38-.61,0-1Q83.6,63.13,62.42,42a5.43,5.43,0,0,1-1.75-4,5,5,0,0,1,1.44-3.59Q70.29,26.18,78.49,18a5.12,5.12,0,0,1,3.73-1.43h15a5.58,5.58,0,0,1,4.13,1.71q7.59,7.62,15.2,15.21a5.23,5.23,0,0,1,.3,7.4q-.15.16-.3.3L107,50.7a5.26,5.26,0,0,1-9.07-4,5.13,5.13,0,0,1,1.6-3.46c1.83-1.82,3.65-3.65,5.49-5.46.34-.33.36-.51,0-.85q-4.72-4.69-9.42-9.41a1.07,1.07,0,0,0-.84-.36h-10a1.18,1.18,0,0,0-.89.4l-10,10c-.4.39-.33.58,0,.94Q95,59.64,116.21,80.81Z" transform="translate(-0.05 0.01)"/><path class="cls-1" d="M100.5,145.77c0-1.7-.14-1.84-1.88-1.94h-.13c-1.71,0-2.39.61-2.4,2.31s0,3.42,0,5.12c0,1.54,0,1.54-1.57,1.5-1.32,0-1.81-.52-1.82-1.84V145.8c0-1.73-.16-1.89-1.92-2h-.12c-1.67,0-2.34.63-2.35,2.29s0,3.16,0,4.74a1.73,1.73,0,1,1-3.44.35,1.69,1.69,0,0,1,0-.23v-5.18c0-1.73-.14-1.86-1.88-2s-2.55.59-2.55,2.41v4.61c0,1.3-.52,1.81-1.83,1.88-.68.05-1.36,0-2,0H71.42a2.53,2.53,0,0,1-2.67-2.39v-.13a2.68,2.68,0,0,1,2.45-2.85,4.3,4.3,0,0,1,3.25.84c.19.14.34.36.61.14a2.84,2.84,0,0,0,1.25-2.13A2,2,0,0,0,75,144.4a5.44,5.44,0,0,0-1.11-.47,8.55,8.55,0,0,0-4-.25C64.9,144.52,63,149,65,152.75H59.37c-.34,0-.35-.19-.35-.44a26.6,26.6,0,0,0-.12-2.82,6.1,6.1,0,0,0-5.12-5.75,8.69,8.69,0,0,0-3.37-.05A6.5,6.5,0,0,0,45,150.24a6.08,6.08,0,0,0,5.4,6.26,28.54,28.54,0,0,0,3.7.14c.18,0,.44-.13.46.25a2.8,2.8,0,0,1-2.4,2.8,6.05,6.05,0,0,1-2.89-.35c-.35-.14-.47,0-.57.29-.24.84-.48,1.68-.78,2.5-.15.4,0,.56.35.69a10.63,10.63,0,0,0,4.4.59,6.13,6.13,0,0,0,5.76-4.31,5.79,5.79,0,0,0,.43-1.79c0-.63.31-.69.84-.69H79a4.36,4.36,0,0,0,3-1,.61.61,0,0,1,.85-.15.54.54,0,0,1,.15.15,5.77,5.77,0,0,0,7.39-.12c.2-.16.29-.16.45,0a3.07,3.07,0,0,0,2.57,1.05H100c.51,0,.63-.13.63-.63C100.49,152.59,100.5,149.18,100.5,145.77Zm-45.85,6.65c0,.25-.12.33-.35.33H53a7.61,7.61,0,0,1-1.72-.1l-.37-.11-.17-.08-.17-.08a2.7,2.7,0,0,1-.56-.45,2.1,2.1,0,0,1-.26-.33,2.59,2.59,0,0,1-.4-1.53,3.27,3.27,0,0,1,.08-.7v-.21l.06-.2a.62.62,0,0,1,.07-.19,1.51,1.51,0,0,1,.09-.18.8.8,0,0,1,.08-.16l.09-.14.09-.12a2.09,2.09,0,0,1,.2-.22.31.31,0,0,1,.11-.09,1.88,1.88,0,0,1,.63-.36,2.17,2.17,0,0,1,.42-.11h1.15a1.22,1.22,0,0,1,.26.06l.24.08.18.08a2.29,2.29,0,0,1,.41.28.8.8,0,0,1,.13.13,1.74,1.74,0,0,1,.25.29,2.94,2.94,0,0,1,.38.75,1.18,1.18,0,0,0,.1.3,2.73,2.73,0,0,1,.1.48.43.43,0,0,1,0,.16,2,2,0,0,1,0,.49,2.94,2.94,0,0,1,0,.42A4.15,4.15,0,0,1,54.65,152.42Z" transform="translate(-0.05 0.01)"/><path class="cls-1" d="M178.19,147.59a7.19,7.19,0,0,0-4.27-6.49,11.89,11.89,0,0,0-6.68-.94,7.47,7.47,0,0,0-2.45.69,2,2,0,0,0-1.13,1.74c0,.31.25.71,0,.9s-.64.13-1,.17h-.19A6.57,6.57,0,0,0,157,148.6a15,15,0,0,0-.19,2.41c-.06,1.09-.48,1.6-1.54,1.67-1.21.09-2.43,0-3.64.07-.32,0-.32-.18-.34-.41a11.5,11.5,0,0,0-.12-1.46,8.37,8.37,0,0,0-9.25-7.39,8.84,8.84,0,0,0-1.75.39c-2.35.78-2,2.66-1,4a.51.51,0,0,0,.62.15,8.41,8.41,0,0,1,2-.3c2.89-.12,4.57,1.44,4.72,4.33,0,.58-.13.71-.69.7h-8.25c-.53,0-.66.15-.64.64a21.86,21.86,0,0,1,0,2.56c0,.57.15.71.71.7H155a4.55,4.55,0,0,0,3.57-1.39c.19-.2.32-.25.58,0a7.17,7.17,0,0,0,4.49,1.41h14c.35,0,.54,0,.53-.47C178.23,153.31,178.32,150.44,178.19,147.59Zm-11.77,4.29v.37a.14.14,0,0,1,0,.09.28.28,0,0,1-.08.15.09.09,0,0,1-.06.06.86.86,0,0,1-.49.15h-2a2,2,0,0,1-.43-.07l-.39-.11-.35-.16a2.23,2.23,0,0,1-.3-.2A1.58,1.58,0,0,1,162,152a2.64,2.64,0,0,1-.41-.58,3.18,3.18,0,0,1-.26-.73,2.77,2.77,0,0,1,0-1.28,1.09,1.09,0,0,1,.08-.28v-.08a.44.44,0,0,1,.06-.16,1.77,1.77,0,0,1,.19-.33,1.55,1.55,0,0,1,.19-.24,1.45,1.45,0,0,1,.46-.39,2.75,2.75,0,0,1,3-.11,1.66,1.66,0,0,1,.34.25l.14.14.12.16a1.49,1.49,0,0,1,.23.43.88.88,0,0,1,.07.23.06.06,0,0,1,0,.06,2.86,2.86,0,0,1,.07.28V150a.24.24,0,0,1,0,.12v1.1c0,.34.15.46.14.65Zm7.48-1.06v1.65a.29.29,0,0,1-.23.26h-2.39a.63.63,0,0,1-.38-.07.41.41,0,0,1-.14-.31v-.18a16.76,16.76,0,0,0-.15-3.32c-.05-.28-.11-.55-.18-.82a6.09,6.09,0,0,0-1.52-2.71,6.4,6.4,0,0,0-2.14-1.38,8.32,8.32,0,0,1,4.23.22,4,4,0,0,1,2.84,3.73c.08,1,.07,2,.06,2.93Z" transform="translate(-0.05 0.01)"/><path class="cls-1" d="M101.62.56a6.24,6.24,0,0,0-7.05,1.28C92.93,3.37,91.38,5,89.81,6.59c-.32.33-.47.3-.78,0C87.46,5,85.92,3.35,84.27,1.83a6.24,6.24,0,0,0-7-1.27,6.51,6.51,0,0,0,2.55,12.5H99.08a6.54,6.54,0,0,0,6.58-6.5v0A6.46,6.46,0,0,0,101.62.56ZM84.3,9.3H79.39l-.32-.05-.2-.06A1.23,1.23,0,0,1,78.56,9a.66.66,0,0,1-.19-.09,1.58,1.58,0,0,1-.24-.15L78,8.63l-.15-.15-.13-.14-.12-.15c0-.06-.09-.13-.14-.2a2.5,2.5,0,0,1-.28-.7h0A2.55,2.55,0,0,1,77,6.76V6.27a2.43,2.43,0,0,1,.08-.47.9.9,0,0,1,.08-.23,2,2,0,0,1,.19-.42c0-.06.08-.13.12-.18a2.6,2.6,0,0,1,.3-.36L78,4.45l.19-.15.25-.16L78.81,4l.25-.08.26-.07a2.47,2.47,0,0,1,2.26.63l.74.73.73.74c.49.5,1,1,1.49,1.51L86.38,9.3Zm17.38-1.86a3.07,3.07,0,0,1-.47.85,2.3,2.3,0,0,1-1.8,1H92.7s-.06,0-.23-.16c.3-.27.6-.49.86-.76,1-.94,1.9-1.9,2.85-2.84l1-.94.22-.2a.91.91,0,0,1,.16-.11h0a1,1,0,0,1,.17-.1h0A1.24,1.24,0,0,1,98,4h.11l.17-.06h.12a1.27,1.27,0,0,1,.28-.06h.17a2.69,2.69,0,0,1,2.11.74A2.75,2.75,0,0,1,101.68,7.44Z" transform="translate(-0.05 0.01)"/><path class="cls-1" d="M74.17,170.71a21.69,21.69,0,0,0-8.82-.46c-2.06.2-2.47,1.33-2.47,3v15.42c0,.71.25.85.86.88,1.37.08,2.73.15,4.09.14a27.2,27.2,0,0,0,3.83-.14,11.21,11.21,0,0,0,6.43-2.73,8.77,8.77,0,0,0,2.64-6.06C81,176.21,79.11,172.27,74.17,170.71Zm1.69,9.5a1.56,1.56,0,0,1-.08.61c-.08.19,0,.3-.08.44a1.53,1.53,0,0,0-.1.41l-.12.39c-.08.22-.17.43-.27.64v.07h0A1.51,1.51,0,0,1,75,183h0a.41.41,0,0,1,0,.09l-.08.12-.08.1h0l-.22.27a2.81,2.81,0,0,1-.35.34,4.21,4.21,0,0,1-.58.44c-.1.07-.21.12-.31.18h0l-.33.16h0l-.26.1A7.08,7.08,0,0,1,72,185l-.58.11h0l-.63.08h-.66c-.66,0-1.33-.07-2-.07-.42,0-.49-.17-.48-.54v-10a.43.43,0,0,1,0-.16.43.43,0,0,1,0-.16v-.05h0l.1-.06h.31a15.91,15.91,0,0,1,3.38.1,5.15,5.15,0,0,1,4.45,5.76A.78.78,0,0,1,75.86,180.21Z" transform="translate(-0.05 0.01)"/><path class="cls-1" d="M39.36,188.57c-.65-1.69-1.3-3.38-2-5-1.66-4.08-3.28-8.19-5.23-12.14a1.86,1.86,0,0,0-.56-.84,3.8,3.8,0,0,0-5.33.68,4.12,4.12,0,0,0-.52.91q-2.7,6.1-5.21,12.28c-.67,1.64-1.31,3.28-2,5h4.56c.33,0,.37-.23.44-.44.41-1.08.81-2.16,1.19-3.24a.58.58,0,0,1,.64-.45h7.17a.57.57,0,0,1,.63.46c.39,1.07.81,2.15,1.22,3.22.08.22.12.45.44.45h4.73A1.45,1.45,0,0,0,39.36,188.57Zm-12.78-7.52c.79-2.05,1.56-4.05,2.34-6.05h.15c.78,2,1.55,4,2.34,6Z" transform="translate(-0.05 0.01)"/><path class="cls-1" d="M125.76,155.93c0,.52-.08.72-.68.72h-14c-.49,0-.64-.12-.64-.63v-19c0-1.68.69-2.35,2.39-2.33a2.41,2.41,0,0,1,.38,0c1.59.16,1.68.27,1.68,1.83V152c0,.64.19.77.79.75h5c.52,0,.65-.16.64-.65v-6c0-1.62.69-2.28,2.31-2.27h.13c1.77.06,2,.26,2,2C125.75,149.18,125.74,152.56,125.76,155.93Z" transform="translate(-0.05 0.01)"/><path class="cls-1" d="M141.7,173.18l-.06.19c-.29,1.29-.29,1.29-1.6,1.29h-7.11c-.4,0-.56.08-.54.52a19.82,19.82,0,0,1,0,2.18c0,.43.14.52.54.52h5.51c2.17,0,3,1,2.47,3.16a2.43,2.43,0,0,1-.14.49c-.12.53-.4.73-1,.72h-6.72c-.6,0-.69.18-.69.72v5.95c0,.41-.11.54-.53.53h-3.58c-.42,0-.54-.12-.53-.54V173.18c0-2,.84-2.82,2.8-2.83h8.76C141.25,170.32,142.05,171.28,141.7,173.18Z" transform="translate(-0.05 0.01)"/><path class="cls-1" d="M160.68,173c-.14,1.48-.35,1.67-1.79,1.67h-4.36c-.5,0-.64.12-.64.64v13.43c0,.6-.17.71-.71.69q-1.69-.06-3.39,0c-.46,0-.56-.14-.56-.57V175.41c0-.56-.1-.77-.72-.74H144.8c-1.83,0-2.51-.77-2.37-2.59v-.31c.23-1.35.34-1.45,1.7-1.45h14.08a3.94,3.94,0,0,1,1.08.12,1.66,1.66,0,0,1,1.32,1.6A6.2,6.2,0,0,1,160.68,173Z" transform="translate(-0.05 0.01)"/><path class="cls-1" d="M42.67,156.29c0,.43-.29.34-.53.34H29c-.44,0-.59-.11-.57-.56v-2.76c0-.5.16-.59.62-.58h8.31c.66,0,.76-.23.65-.78-.07-.3-.07-.63-.14-.94a3.93,3.93,0,0,0-4.39-3.33,7.8,7.8,0,0,0-2.14.31.66.66,0,0,1-.78-.24c-1.33-1.59-.86-3.26,1.1-3.89a8.32,8.32,0,0,1,10.54,5.26,8,8,0,0,1,.35,1.46A49.49,49.49,0,0,1,42.67,156.29Z" transform="translate(-0.05 0.01)"/><path class="cls-1" d="M134.31,156c0,.47-.1.62-.59.6h-3.19c-.61,0-.69-.21-.69-.73v-19a2,2,0,0,1,1.78-2.2,1.62,1.62,0,0,1,.44,0h.32c1.68.07,1.9.29,1.9,1.93v9.27C134.3,149.3,134.29,152.67,134.31,156Z" transform="translate(-0.05 0.01)"/><path class="cls-1" d="M123.9,188.66c0,.64-.19.78-.79.75h-3.39c-.35,0-.52,0-.52-.48V172.37a1.8,1.8,0,0,1,1.61-2h.12a5.57,5.57,0,0,1,1,0c1.76.06,1.93.24,1.93,2v7.8C123.88,183,123.86,185.81,123.9,188.66Z" transform="translate(-0.05 0.01)"/><path class="cls-1" d="M88.47,188.78c0,.51-.14.65-.64.63H84.25c-.36,0-.47-.11-.47-.47V172.56c0-1.57.72-2.22,2.3-2.25h.44c1.76.07,1.92.24,1.92,2v7.8C88.46,183,88.45,185.89,88.47,188.78Z" transform="translate(-0.05 0.01)"/><path class="cls-1" d="M122.51,160.06a2.1,2.1,0,1,1-4.19.29,1.41,1.41,0,0,1,0-.29,2.1,2.1,0,0,1,4.19,0Z" transform="translate(-0.05 0.01)"/><path class="cls-1" d="M12.76,140.52a2.1,2.1,0,0,1-2.15,2.07h0a2,2,0,0,1-2-2c0-.06,0-.11,0-.16a2,2,0,0,1,2-2h.09a2.06,2.06,0,0,1,2.06,2.06Z" transform="translate(-0.05 0.01)"/><path class="cls-1" d="M21.47,160.09a2.1,2.1,0,0,1-2.08,2.12h0a2.07,2.07,0,0,1-2.09-2.05.86.86,0,0,1,0-.16,2,2,0,0,1,2-2h.12a2.07,2.07,0,0,1,2.07,2.07Z" transform="translate(-0.05 0.01)"/><path class="cls-1" d="M26.65,160.11a2.08,2.08,0,0,1-2.06,2.1h-.05a2,2,0,0,1-2.06-2v-.09A2,2,0,0,1,24.4,158h.15a2.05,2.05,0,0,1,2.1,2Z" transform="translate(-0.05 0.01)"/><path class="cls-1" d="M127.71,160.09a2.1,2.1,0,0,1-2.1,2.12h0a2,2,0,0,1-2.06-1.94v-.18a2,2,0,0,1,1.93-2.07h.07a2.08,2.08,0,0,1,2.17,2Z" transform="translate(-0.05 0.01)"/><path class="cls-1" d="M7.55,140.45a2.1,2.1,0,1,1-4.19.29,1.41,1.41,0,0,1,0-.29,2,2,0,0,1,2-2h.1a2,2,0,0,1,2.09,1.91Z" transform="translate(-0.05 0.01)"/><path class="cls-1" d="M173.9,150.82v1.58" transform="translate(-0.05 0.01)"/><path class="cls-1" d="M173.9,152.47v0" transform="translate(-0.05 0.01)"/><path class="cls-1" d="M75.48,182.06c-.08.22-.17.43-.27.64" transform="translate(-0.05 0.01)"/><path class="cls-1" d="M29.07,175Z" transform="translate(-0.05 0.01)"/></g></g></svg>