<svg xmlns="http://www.w3.org/2000/svg" viewBox="0 0 25.46 25.51"><g data-name="Layer 2"><path d="M25.37 11.92a11.12 11.12 0 00-.61-3.28A11.78 11.78 0 0023.52 6a13.77 13.77 0 00-1.6-2A12.36 12.36 0 0016.06.44 9.92 9.92 0 0014.27.1c-.07 0-.11 0-.12-.1h-2.74c0 .09-.07.09-.14.1a10.61 10.61 0 00-2.44.52A12.34 12.34 0 004.4 3.16 12.57 12.57 0 00.11 12a12.15 12.15 0 00.22 3 12.83 12.83 0 001.25 3.6.46.46 0 010 .38c-.11.37-.21.75-.31 1.12L0 24.82a.52.52 0 00.14.53.24.24 0 01.09.16H.9c0-.13.13-.1.21-.12l5.65-1.49a.26.26 0 01.21 0l.52.24a12.8 12.8 0 004.94 1.15 11.08 11.08 0 001.73-.09 12.27 12.27 0 003.53-.93 12.53 12.53 0 004.92-3.72 12.38 12.38 0 002.14-3.9 11.2 11.2 0 00.62-3.25c0-.07 0-.15.09-.16v-1.2c-.09.01-.09-.04-.09-.12zM24.86 13a11.64 11.64 0 01-.81 4 12.17 12.17 0 01-5.2 6.09 11.89 11.89 0 01-4.06 1.48 8.5 8.5 0 01-1.82.18 12.28 12.28 0 01-5.25-1.11 3.14 3.14 0 01-.58-.29.46.46 0 00-.38 0L.86 24.9c-.34.09-.34.09-.25-.25.53-1.93 1.07-3.87 1.61-5.8a.46.46 0 00-.06-.33 11.74 11.74 0 01-1.35-3.77 11.38 11.38 0 01-.15-3 12.18 12.18 0 014-8.16A11.86 11.86 0 0110 .85a11.61 11.61 0 013.57-.29A11.87 11.87 0 0118.47 2a12 12 0 013.33 2.6 11.38 11.38 0 012.39 4 11.65 11.65 0 01.64 3.09c.02.47.04.91.03 1.31z" fill="#e5e5e5"/><path d="M24.83 11.72a11.65 11.65 0 00-.64-3.09 11.38 11.38 0 00-2.39-4A12 12 0 0018.47 2a11.87 11.87 0 00-4.9-1.4A11.61 11.61 0 0010 .85a11.86 11.86 0 00-5.31 2.77 12.18 12.18 0 00-4 8.16 11.38 11.38 0 00.15 3 11.74 11.74 0 001.35 3.77.46.46 0 01.06.33c-.54 1.93-1.08 3.87-1.61 5.8-.09.34-.09.34.25.25l5.9-1.55a.46.46 0 01.38 0 3.14 3.14 0 00.58.29A12.28 12.28 0 0013 24.78a8.5 8.5 0 001.82-.18 11.89 11.89 0 004.06-1.48A12.17 12.17 0 0024.05 17a11.64 11.64 0 00.81-4c.01-.4-.01-.84-.03-1.28zm-10 10.79a9.88 9.88 0 01-7.25-1.26.65.65 0 00-.58-.08c-1.06.29-2.13.56-3.19.84-.33.09-.33.09-.24-.25.29-1.05.57-2.1.86-3.14a.47.47 0 00-.07-.46 9.78 9.78 0 01-1.61-4.36A10.09 10.09 0 0111.2 2.71a7.13 7.13 0 011.48-.12 10.06 10.06 0 012.1 19.92z" fill="#fefefe"/><path d="M22.68 11a10.07 10.07 0 00-10-8.43 7.13 7.13 0 00-1.48.12A10.09 10.09 0 002.75 13.8a9.78 9.78 0 001.58 4.36.47.47 0 01.07.46c-.29 1-.57 2.09-.86 3.14-.09.34-.09.34.24.25 1.06-.28 2.13-.55 3.19-.84a.65.65 0 01.56.08 9.88 9.88 0 007.25 1.26A10.07 10.07 0 0022.68 11zm-6.24 7.41a5.92 5.92 0 01-2.65-.41 11.52 11.52 0 01-5.89-4.81 7.19 7.19 0 01-1.19-2.36 5.65 5.65 0 01-.11-.91 3.41 3.41 0 011.08-2.51 1.09 1.09 0 01.83-.35 1.53 1.53 0 00.37 0 .77.77 0 01.86.56l.94 2.28a.55.55 0 010 .54 10.8 10.8 0 01-.76 1 .47.47 0 00-.06.61A8.39 8.39 0 0014 15.66a.44.44 0 00.55-.14c.32-.36.63-.73.92-1.12s.33-.35.67-.21c.87.35 1.7.79 2.54 1.21a.37.37 0 01.19.37 2.58 2.58 0 01-2.43 2.66z" fill="#64b061"/><path d="M6.6 9.92a3.41 3.41 0 011.08-2.51 1.09 1.09 0 01.83-.35 1.53 1.53 0 00.37 0 .77.77 0 01.86.56c.31.76.63 1.52.95 2.28a.58.58 0 010 .54 10.8 10.8 0 01-.76 1 .47.47 0 00-.06.61A8.39 8.39 0 0014 15.66a.44.44 0 00.55-.14c.32-.36.63-.73.92-1.12s.33-.35.67-.21c.87.35 1.7.79 2.54 1.21a.37.37 0 01.19.37 2.58 2.58 0 01-2.45 2.66 5.92 5.92 0 01-2.63-.43 11.52 11.52 0 01-5.89-4.81 7.19 7.19 0 01-1.19-2.36 5.52 5.52 0 01-.11-.91z" fill="#fdfefd"/></g></svg>