<svg xmlns="http://www.w3.org/2000/svg" viewBox="0 0 23.87 23.87"><path d="M23.86 10.88c0-.56-.28-.81-.85-.84a2.76 2.76 0 01-1.63-.6 2.63 2.63 0 01-.31-3.78l.22-.24a.67.67 0 000-.9 12.37 12.37 0 00-1.83-1.86.67.67 0 00-1 .08 2.74 2.74 0 01-1.95.81 2.6 2.6 0 01-2.61-2.44 1.2 1.2 0 010-.19c0-.56-.26-.85-.85-.87a2.6 2.6 0 01-.39 0h-1.4l-.48.06a.68.68 0 00-.71.74 2.75 2.75 0 01-.8 2 2.67 2.67 0 01-3.59.07l-.24-.32a.68.68 0 00-.88 0 11.71 11.71 0 00-1.91 1.85.66.66 0 00.07.94 2.69 2.69 0 01.84 1.7A2.63 2.63 0 011.15 10H.74a.65.65 0 00-.66.61c0 .2 0 .41-.08.62v1.45a3.06 3.06 0 01.05.32c0 .62.28.87.92.9a2.61 2.61 0 011.58.59 2.66 2.66 0 01.31 3.78l-.24.26a.66.66 0 000 .87 12.65 12.65 0 001.85 1.88.66.66 0 001-.08 2.81 2.81 0 012-.82A2.59 2.59 0 0110 22.81v.1c0 .73.29.95 1 .95h2c.65 0 .87-.22.91-.91a2.57 2.57 0 011.89-2.42 2.65 2.65 0 012.47.55l.26.23a.67.67 0 00.88 0 11.65 11.65 0 001.9-1.88.67.67 0 00-.07-.95A2.64 2.64 0 0123 13.93c.54 0 .79-.2.81-.74.07-.77.06-1.54.05-2.31zm-6 4.59a.86.86 0 00-.14-.13c-.9-.91-1.81-1.82-2.72-2.72a.27.27 0 01-.07-.34A4.23 4.23 0 0011 6.6a6.23 6.23 0 00-1.13.14.47.47 0 00-.2.82c.6.61 1.2 1.22 1.81 1.82a.52.52 0 01.18.5c-.06.41-.13.81-.18 1.22a.27.27 0 01-.26.25l-1.2.18a.53.53 0 01-.5-.17L7.78 9.61c-.16-.16-.32-.3-.57-.23s-.31.28-.36.5a4.23 4.23 0 002.42 4.81 4.13 4.13 0 003.07.12.38.38 0 01.49.11l2.64 2.65.18.19a6.9 6.9 0 112.21-2.29z" fill="#4d4d4d" data-name="Layer 2"/></svg>