<svg data-name="Layer 1" xmlns="http://www.w3.org/2000/svg" viewBox="0 0 26.28 23.33"><g data-name="Layer 2"><path d="M26.19 7a8.28 8.28 0 00-1.4-3.9 7 7 0 00-9.72-1.87 7.11 7.11 0 00-1.64 1.55l-.3.38-.31-.39A6.76 6.76 0 006.01.14 6.93 6.93 0 00.56 4.87a8.64 8.64 0 001 8 18.49 18.49 0 003.24 3.71c2.39 2.13 4.82 4.23 7.24 6.33a1.52 1.52 0 002.16 0q2.81-2.46 5.62-4.91a29.19 29.19 0 004.35-4.47A10 10 0 0026.01 10c.12-.5.18-1 .27-1.53v-1.2a.58.58 0 01-.09-.27zm-2.83 5.06a22.06 22.06 0 01-3.86 4.21c-2 1.81-4.14 3.58-6.21 5.37l-.17.14c-.54-.47-1.08-.92-1.61-1.39-1.88-1.64-3.78-3.27-5.63-4.94a17.34 17.34 0 01-3-3.4 7.14 7.14 0 01-.87-6.59 5.47 5.47 0 014.19-3.8 5.09 5.09 0 015 1.59 16.18 16.18 0 011.14 1.48 1 1 0 001.4.2 1 1 0 00.2-.2c.1-.13.18-.27.27-.4a6.34 6.34 0 012.43-2.25 5.21 5.21 0 015.14.25A5.94 5.94 0 0124.64 7a7.32 7.32 0 01-1.28 5.05z" fill="#fff" data-name="Layer 2-2"/></g></svg>