<svg xmlns="http://www.w3.org/2000/svg" viewBox="0 0 30.19 24.2"><defs><style>.cls-1{fill:#4d4d4d}</style></defs><g id="Layer_2" data-name="Layer 2"><g id="Layer_2-2" data-name="Layer 2"><path class="cls-1" d="M30.14 12.17a10.88 10.88 0 00-6.66-9.1c-.51-.23-1.06-.39-1.61-.59V.93A.85.85 0 0021 0h-3.61a.82.82 0 00-.88.89v1.35c0 .23-.08.3-.28.36a10.42 10.42 0 00-3.43 1.63c-.37.27-.71.56-1.05.86a.43.43 0 00-.05.63.45.45 0 00.64 0l.13-.11a10 10 0 0113.44 0 9.74 9.74 0 013.23 9.26A9.88 9.88 0 0126 20.64c-.25.24-.29.5-.11.7s.46.18.72-.06a10.87 10.87 0 003.25-5.59c.14-.58.2-1.18.3-1.76v-1.54a1.74 1.74 0 01-.02-.22zM21 2.25h-3.59V.91H21z"/><path class="cls-1" d="M19.2 4.9a8.3 8.3 0 108.28 8.31A8.29 8.29 0 0019.2 4.9zm5.51 13.23c-.26-.28-.51-.55-.77-.8s-.49-.28-.69-.08-.18.45.06.69l.81.78a7.52 7.52 0 01-4.49 1.87v-1.11c0-.35-.16-.54-.44-.54s-.44.18-.45.53v1.12a7.49 7.49 0 01-4.5-1.88c.28-.27.56-.51.82-.77a.45.45 0 10-.62-.63c-.26.25-.51.52-.79.81a7.48 7.48 0 01-1.87-4.48h1.1c.11 0 .27 0 .33-.06a.77.77 0 00.21-.47c0-.23-.2-.35-.44-.35h-1.19a7.38 7.38 0 011.86-4.48l.78.8c.25.24.51.26.7.06s.17-.45-.08-.7-.52-.5-.79-.77a7.47 7.47 0 014.48-1.87v1.1c0 .36.16.54.44.55s.45-.19.45-.54V5.79a7.48 7.48 0 014.49 1.88c-.3.28-.57.53-.82.79a.44.44 0 00-.06.67.45.45 0 00.68-.05c.26-.26.51-.54.78-.83a7.42 7.42 0 011.88 4.5h-1a.76.76 0 00-.34.05.39.39 0 00-.25.48.4.4 0 00.44.35h1.2a7.43 7.43 0 01-1.92 4.5z"/><path class="cls-1" d="M25 22.53a10.88 10.88 0 01-3.24 1.36 11 11 0 01-13.37-8.56c-.13-.71-.17-1.44-.26-2.16a11.23 11.23 0 012.22-6.54c.08-.1.16-.24.26-.26a.79.79 0 01.51.07.38.38 0 01.08.56c-.13.2-.28.38-.41.58A10.12 10.12 0 0016.65 23a10 10 0 007.75-1.12l.15-.09a.44.44 0 11.45.76zM6.55 13.3c0 .28-.2.44-.55.44H.55c-.34 0-.55-.17-.55-.44s.2-.44.54-.44H6c.36 0 .56.14.55.44zM7.14 10.71c0 .28-.2.44-.57.44H2.33c-.35 0-.55-.17-.56-.44s.21-.45.57-.45h4.24c.42 0 .57.16.56.45zM7.14 15.69a.41.41 0 01-.45.43H2.33c-.35 0-.55-.16-.56-.43s.21-.46.57-.46H6.7a.42.42 0 01.44.46zM7.74 18.28c0 .28-.19.43-.55.43H3.74c-.37 0-.57-.16-.56-.45s.2-.44.55-.44H7.2c.35 0 .54.18.54.46zM7.74 8.11a.45.45 0 01-.51.45H3.7c-.33 0-.52-.17-.52-.44s.19-.45.53-.45h3.51c.33 0 .51.16.52.44zM21.05 11.8c-.51.52-1 1-1.54 1.54a.5.5 0 01-.46.11.52.52 0 01-.29-.41V9.8a.43.43 0 01.44-.45.46.46 0 01.44.47v2.05l.08.05c.23-.25.46-.5.7-.74s.5-.26.7-.06a.47.47 0 01-.07.68z"/></g></g></svg>