<svg xmlns="http://www.w3.org/2000/svg" viewBox="0 0 30.19 24.2"><defs><style>.cls-1{fill:#4d4d4d;}</style></defs><title>Asset 40</title><g id="Layer_2" data-name="Layer 2"><g id="Layer_2-2" data-name="Layer 2"><path class="cls-1" d="M30.14,12.17a10.88,10.88,0,0,0-6.66-9.1c-.51-.23-1.06-.39-1.61-.59V.93A.85.85,0,0,0,21,0H17.39a.82.82,0,0,0-.88.89c0,.45,0,.9,0,1.35,0,.23-.08.3-.28.36A10.42,10.42,0,0,0,12.8,4.23c-.37.27-.71.56-1.05.86a.43.43,0,0,0-.05.63.45.45,0,0,0,.64,0l.13-.11a10,10,0,0,1,13.44,0,9.74,9.74,0,0,1,3.23,9.26A9.88,9.88,0,0,1,26,20.64c-.25.24-.29.5-.11.7s.46.18.72-.06a10.87,10.87,0,0,0,3.25-5.59c.14-.58.2-1.18.3-1.76V12.39A1.74,1.74,0,0,1,30.14,12.17ZM21,2.25H17.41V.91H21Z"/><path class="cls-1" d="M19.2,4.9a8.3,8.3,0,1,0,8.28,8.31A8.29,8.29,0,0,0,19.2,4.9Zm5.51,13.23c-.26-.28-.51-.55-.77-.8s-.49-.28-.69-.08-.18.45.06.69l.81.78a7.52,7.52,0,0,1-4.49,1.87V19.48c0-.35-.16-.54-.44-.54s-.44.18-.45.53v1.12a7.49,7.49,0,0,1-4.5-1.88c.28-.27.56-.51.82-.77a.45.45,0,1,0-.62-.63c-.26.25-.51.52-.79.81a7.48,7.48,0,0,1-1.87-4.48h1.1c.11,0,.27,0,.33-.06a.77.77,0,0,0,.21-.47c0-.23-.2-.35-.44-.35H11.79a7.38,7.38,0,0,1,1.86-4.48l.78.8c.25.24.51.26.7.06s.17-.45-.08-.7-.52-.5-.79-.77a7.47,7.47,0,0,1,4.48-1.87V6.9c0,.36.16.54.44.55s.45-.19.45-.54V5.79a7.48,7.48,0,0,1,4.49,1.88c-.3.28-.57.53-.82.79a.44.44,0,0,0-.06.67.45.45,0,0,0,.68-.05c.26-.26.51-.54.78-.83a7.42,7.42,0,0,1,1.88,4.5h-1a.76.76,0,0,0-.34.05.39.39,0,0,0-.25.48.4.4,0,0,0,.44.35h1.2A7.43,7.43,0,0,1,24.71,18.13Z"/><path class="cls-1" d="M25,22.53a10.88,10.88,0,0,1-3.24,1.36A11,11,0,0,1,8.39,15.33c-.13-.71-.17-1.44-.26-2.16a11.23,11.23,0,0,1,2.22-6.54c.08-.1.16-.24.26-.26a.79.79,0,0,1,.51.07A.38.38,0,0,1,11.2,7c-.13.2-.28.38-.41.58A10.12,10.12,0,0,0,16.65,23a10,10,0,0,0,7.75-1.12l.15-.09a.44.44,0,1,1,.45.76Z"/><path class="cls-1" d="M6.55,13.3c0,.28-.2.44-.55.44H.55c-.34,0-.55-.17-.55-.44s.2-.44.54-.44H6C6.36,12.86,6.56,13,6.55,13.3Z"/><path class="cls-1" d="M7.14,10.71c0,.28-.2.44-.57.44H2.33c-.35,0-.55-.17-.56-.44s.21-.45.57-.45H6.58C7,10.26,7.15,10.42,7.14,10.71Z"/><path class="cls-1" d="M7.14,15.69a.41.41,0,0,1-.45.43H2.33c-.35,0-.55-.16-.56-.43s.21-.46.57-.46H6.7A.42.42,0,0,1,7.14,15.69Z"/><path class="cls-1" d="M7.74,18.28c0,.28-.19.43-.55.43H3.74c-.37,0-.57-.16-.56-.45s.2-.44.55-.44H7.2C7.55,17.82,7.74,18,7.74,18.28Z"/><path class="cls-1" d="M7.74,8.11a.45.45,0,0,1-.51.45H3.7c-.33,0-.52-.17-.52-.44s.19-.45.53-.45H7.22C7.55,7.67,7.73,7.83,7.74,8.11Z"/><path class="cls-1" d="M21.05,11.8c-.51.52-1,1-1.54,1.54a.5.5,0,0,1-.46.11.52.52,0,0,1-.29-.41c0-1.08,0-2.16,0-3.24a.43.43,0,0,1,.44-.45.46.46,0,0,1,.44.47c0,.56,0,1.13,0,1.7v.35l.08.05c.23-.25.46-.5.7-.74s.5-.26.7-.06A.47.47,0,0,1,21.05,11.8Z"/></g></g></svg>