<svg xmlns="http://www.w3.org/2000/svg" viewBox="0 0 20.26 22.1"><defs><style>.cls-1{fill:#4d4d4d;}</style></defs><title>Asset 43</title><g id="Layer_2" data-name="Layer 2"><g id="Layer_2-2" data-name="Layer 2"><path class="cls-1" d="M18.38,15.58a3.42,3.42,0,0,0-4,.63,1.3,1.3,0,0,0-.11.19L6.73,12.12a3.48,3.48,0,0,0,0-2.14l7.45-4.25A3.46,3.46,0,1,0,15.76.16,3.36,3.36,0,0,0,13.9,1.59a3.46,3.46,0,0,0-.39,2.94L6.06,8.77a3.46,3.46,0,1,0,0,4.56l7.44,4.24c0,.08,0,.13,0,.19a3.43,3.43,0,0,0,2.19,4.14c.24.08.49.13.74.2h.78l.12,0a3.45,3.45,0,0,0,1.08-6.48ZM16.79,1.38a2.07,2.07,0,1,1-2.06,2.08A2.07,2.07,0,0,1,16.79,1.38ZM3.45,13.12a2.07,2.07,0,1,1,2.07-2.06A2.08,2.08,0,0,1,3.45,13.12Zm13.36,7.59a2.07,2.07,0,0,1-2.08-2.06,2.07,2.07,0,1,1,4.14,0A2.07,2.07,0,0,1,16.81,20.71Z"/></g></g></svg>