<svg xmlns="http://www.w3.org/2000/svg" viewBox="0 0 24.06 16.37"><defs><style>.cls-1{fill:#fff}</style></defs><g id="Layer_2" data-name="Layer 2"><g id="Layer_2-2" data-name="Layer 2"><path class="cls-1" d="M24.06 2.3A2.2 2.2 0 0023.6.9a2.3 2.3 0 00-2-.9H2.13A2.23 2.23 0 00.51.84 2.63 2.63 0 000 2v12.34a3.65 3.65 0 00.23.73 2.2 2.2 0 002.13 1.3H21.7a2.23 2.23 0 002.36-2.29c.01-3.93 0-7.86 0-11.78zm-1.5.13v11.51c0 .67-.26.93-.94.93H2.41a1.21 1.21 0 01-.6-.15.76.76 0 01-.31-.72V2.25a.74.74 0 01.74-.75h19.64a.73.73 0 01.68.68z"/><path class="cls-1" d="M20.9 4.2a1 1 0 01-.18.18l-8.07 7.12a.8.8 0 01-1.24 0l-8-7.09A.86.86 0 013 3.77a.7.7 0 01.39-.68.7.7 0 01.77 0 3.07 3.07 0 01.34.29l7.3 6.42.2.2 2.31-2c1.8-1.58 3.59-3.17 5.4-4.75a1.26 1.26 0 01.61-.25.63.63 0 01.66.4.7.7 0 01-.08.8z"/></g></g></svg>