<svg xmlns="http://www.w3.org/2000/svg" viewBox="0 0 16.73 26.55"><path d="M16.72 2.73v-.42a2.53 2.53 0 00-.87-1.69A2.9 2.9 0 0014.48 0H2.19a6.15 6.15 0 00-1.14.5A2.5 2.5 0 000 2.7v21.13a1.85 1.85 0 000 .23 2.5 2.5 0 002.56 2.48h11.59A2.45 2.45 0 0015.7 26a2.61 2.61 0 001-2.21l.02-21.06zM8.36 24.84a.7.7 0 01-.67-.68.68.68 0 11.67.68zm6.37-4.41A1.65 1.65 0 0113 22.21H3.77A1.66 1.66 0 012 20.41V4.67a1.65 1.65 0 011.3-1.73 2 2 0 01.49 0H13a1.65 1.65 0 011.78 1.77c-.04 5.22-.05 10.47-.05 15.72z" fill="#4d4d4d" data-name="Layer 2"/></svg>