<svg xmlns="http://www.w3.org/2000/svg" viewBox="0 0 20.86 20.9"><defs><style>.cls-1{fill:#fff;}</style></defs><title>Asset 30</title><g id="Layer_2" data-name="Layer 2"><g id="Layer_2-2" data-name="Layer 2"><path class="cls-1" d="M20.25,18.21c-.62.64-1.26,1.26-1.89,1.89a2.67,2.67,0,0,1-1.61.76l-.15,0h-.86c-.51-.11-1-.19-1.53-.33a12.67,12.67,0,0,1-2.92-1.29,27.49,27.49,0,0,1-6.86-5.76A21.94,21.94,0,0,1,1.15,8.7,10.64,10.64,0,0,1,0,5.28,3.67,3.67,0,0,1,.35,3.07a2.65,2.65,0,0,1,.44-.6C1.4,1.84,2,1.24,2.64.62a2.07,2.07,0,0,1,2.95,0c1,.92,1.88,1.86,2.81,2.81a2,2,0,0,1,0,2.84,2.2,2.2,0,0,1-.62.38A2.11,2.11,0,0,0,6.53,7.79,1.74,1.74,0,0,0,6.45,9a7.14,7.14,0,0,0,1.72,2.93A9.46,9.46,0,0,0,11,14.06a2.71,2.71,0,0,0,1.52.37,1.87,1.87,0,0,0,1.61-1.17,2.19,2.19,0,0,1,.82-1.11,2,2,0,0,1,2.46.27c1,.95,1.95,1.92,2.9,2.9A2.07,2.07,0,0,1,20.25,18.21Z"/></g></g></svg>