<svg xmlns="http://www.w3.org/2000/svg" viewBox="0 0 23.87 23.87"><defs><style>.cls-1{fill:#4d4d4d;}</style></defs><title>Asset 36</title><g id="Layer_2" data-name="Layer 2"><g id="Layer_2-2" data-name="Layer 2"><path class="cls-1" d="M23.86,10.88c0-.56-.28-.81-.85-.84a2.76,2.76,0,0,1-1.63-.6,2.63,2.63,0,0,1-.31-3.78l.22-.24a.67.67,0,0,0,0-.9,12.37,12.37,0,0,0-1.83-1.86.67.67,0,0,0-1,.08,2.74,2.74,0,0,1-1.95.81,2.6,2.6,0,0,1-2.61-2.44,1.2,1.2,0,0,1,0-.19c0-.56-.26-.85-.85-.87a2.6,2.6,0,0,1-.39,0H11.26l-.48.06a.68.68,0,0,0-.71.74,2.75,2.75,0,0,1-.8,2,2.67,2.67,0,0,1-3.59.07L5.44,2.6a.68.68,0,0,0-.88,0A11.71,11.71,0,0,0,2.65,4.45a.66.66,0,0,0,.07.94,2.69,2.69,0,0,1,.84,1.7A2.63,2.63,0,0,1,1.15,10L.74,10a.65.65,0,0,0-.66.61c0,.2,0,.41-.08.62v1.45A3.06,3.06,0,0,1,.05,13c0,.62.28.87.92.9a2.61,2.61,0,0,1,1.58.59,2.66,2.66,0,0,1,.31,3.78l-.24.26a.66.66,0,0,0,0,.87,12.65,12.65,0,0,0,1.85,1.88.66.66,0,0,0,1-.08,2.81,2.81,0,0,1,2-.82A2.59,2.59,0,0,1,10,22.81v.1c0,.73.29.95,1,.95s1.35,0,2,0,.87-.22.91-.91a2.57,2.57,0,0,1,1.89-2.42,2.65,2.65,0,0,1,2.47.55l.26.23a.67.67,0,0,0,.88,0,11.65,11.65,0,0,0,1.9-1.88.67.67,0,0,0-.07-.95A2.64,2.64,0,0,1,23,13.93c.54,0,.79-.2.81-.74C23.88,12.42,23.87,11.65,23.86,10.88Zm-6,4.59a.86.86,0,0,0-.14-.13c-.9-.91-1.81-1.82-2.72-2.72a.27.27,0,0,1-.07-.34A4.23,4.23,0,0,0,11,6.6a6.23,6.23,0,0,0-1.13.14.47.47,0,0,0-.2.82c.6.61,1.2,1.22,1.81,1.82a.52.52,0,0,1,.18.5c-.06.41-.13.81-.18,1.22a.27.27,0,0,1-.26.25l-1.2.18a.53.53,0,0,1-.5-.17L7.78,9.61c-.16-.16-.32-.3-.57-.23s-.31.28-.36.5a4.23,4.23,0,0,0,2.42,4.81,4.13,4.13,0,0,0,3.07.12.38.38,0,0,1,.49.11l2.64,2.65.18.19a6.9,6.9,0,1,1,2.21-2.29Z"/></g></g></svg>