<svg xmlns="http://www.w3.org/2000/svg" viewBox="0 0 43.9 43.74"><path d="M41.77 12c-.06.23-.11.46-.17.68q-.6 2.49-1.21 5a3.54 3.54 0 01-3.39 3l-16.14 1.65-5 .52c-.26 0-.39 0-.47-.29l-4.67-14.1c0-.07 0-.14-.06-.27l23.71.35a4.6 4.6 0 01-.15-1.18v-.92l-13.8-.19-10.05-.14a.48.48 0 01-.55-.4c-.23-.78-.5-1.56-.76-2.33A4.79 4.79 0 004.38 0h-3A1.28 1.28 0 000 .81v.44a1.24 1.24 0 001.36.85h2.86a2.72 2.72 0 012.91 2.1c2.07 6.23 4.12 12.47 6.22 18.7a2.48 2.48 0 01-.11 2 4.88 4.88 0 004.54 6.92h19.7a3.17 3.17 0 00.44 0 1 1 0 00.9-1 1 1 0 00-.86-1 3.67 3.67 0 00-.66-.05H17.86a2.82 2.82 0 01-2.66-4.1 1 1 0 01.95-.69c2.94-.28 5.88-.59 8.82-.9 4.08-.42 8.17-.87 12.25-1.28a5.59 5.59 0 005-4c.59-2.22 1.14-4.46 1.67-6.7zM14.35 34.35A4.7 4.7 0 1019 39.06a4.72 4.72 0 00-4.65-4.71zm0 7.3a2.6 2.6 0 112.61-2.59 2.6 2.6 0 01-2.63 2.59zm19.8-7.29a4.69 4.69 0 104.68 4.7 4.71 4.71 0 00-4.68-4.7zm0 7.28a2.6 2.6 0 110-5.19 2.6 2.6 0 110 5.19z" fill="#fff" data-name="Layer 2"/></svg>