<svg data-name="Layer 1" xmlns="http://www.w3.org/2000/svg" viewBox="0 0 27.88 27.13"><g data-name="Layer 2"><path d="M27.65 4.3a1.07 1.07 0 00-.62-.2l-14.37-.22-6.23-.08a.31.31 0 01-.34-.25c-.14-.48-.31-1-.47-1.44a3 3 0 00-2.9-2.1H.84a.79.79 0 00-.84.5v.27a.76.76 0 00.85.53h1.76a1.69 1.69 0 011.81 1.3q1.92 5.8 3.86 11.6a1.59 1.59 0 01-.07 1.23 3 3 0 001.42 4 3.1 3.1 0 001.37.29h12.5a.62.62 0 00.55-.61.61.61 0 00-.53-.64 1.41 1.41 0 00-.41 0h-12a1.76 1.76 0 01-1.85-1.67 1.8 1.8 0 01.19-.88.64.64 0 01.6-.42l5.46-.56 7.6-.8a3.44 3.44 0 003.11-2.49c.6-2.26 1.12-4.54 1.65-6.81a.58.58 0 00-.22-.55zM25.8 7.89l-.75 3.12A2.21 2.21 0 0123 12.82l-10 1-3.11.32c-.17 0-.25 0-.3-.18l-2.94-8.7v-.17l19.8.29zM8.9 21.31A2.94 2.94 0 006 24.22a2.91 2.91 0 102.91-2.91zm0 4.53a1.62 1.62 0 111.61-1.63 1.62 1.62 0 01-1.62 1.61zm12.28-4.53a2.91 2.91 0 102.9 2.92 2.94 2.94 0 00-2.9-2.92zm0 4.52a1.6 1.6 0 01-1.62-1.59 1.62 1.62 0 113.23-.23 1 1 0 010 .25 1.61 1.61 0 01-1.61 1.57z" fill="#fff" data-name="Layer 2-2"/></g></svg>