<svg xmlns="http://www.w3.org/2000/svg" viewBox="0 0 43.9 43.74"><defs><style>.cls-1{fill:#fff;}</style></defs><title>Asset 5</title><g id="Layer_2" data-name="Layer 2"><g id="Layer_2-2" data-name="Layer 2"><path class="cls-1" d="M41.77,12c-.06.23-.11.46-.17.68q-.6,2.49-1.21,5a3.54,3.54,0,0,1-3.39,3L20.86,22.33l-5,.52c-.26,0-.39,0-.47-.29L10.72,8.46c0-.07,0-.14-.06-.27l23.71.35a4.6,4.6,0,0,1-.15-1.18V6.44l-13.8-.19L10.37,6.11a.48.48,0,0,1-.55-.4c-.23-.78-.5-1.56-.76-2.33A4.79,4.79,0,0,0,4.38,0c-1,0-2,0-3,0A1.28,1.28,0,0,0,0,.81v.44a1.24,1.24,0,0,0,1.36.85c1,0,1.91,0,2.86,0A2.72,2.72,0,0,1,7.13,4.2c2.07,6.23,4.12,12.47,6.22,18.7a2.48,2.48,0,0,1-.11,2,4.88,4.88,0,0,0,4.54,6.92h19.7a3.17,3.17,0,0,0,.44,0,1,1,0,0,0,.9-1,1,1,0,0,0-.86-1,3.67,3.67,0,0,0-.66-.05c-6.48,0-13,0-19.44,0a2.82,2.82,0,0,1-2.66-4.1,1,1,0,0,1,.95-.69c2.94-.28,5.88-.59,8.82-.9,4.08-.42,8.17-.87,12.25-1.28a5.59,5.59,0,0,0,5-4c.59-2.22,1.14-4.46,1.67-6.7Z"/><path class="cls-1" d="M14.35,34.35A4.7,4.7,0,1,0,19,39.06,4.72,4.72,0,0,0,14.35,34.35Zm0,7.3a2.6,2.6,0,1,1,2.61-2.59A2.6,2.6,0,0,1,14.33,41.65Z"/><path class="cls-1" d="M34.15,34.36a4.69,4.69,0,1,0,4.68,4.7A4.71,4.71,0,0,0,34.15,34.36Zm0,7.28a2.6,2.6,0,1,1,0-5.19,2.6,2.6,0,1,1,0,5.19Z"/></g></g></svg>