<svg xmlns="http://www.w3.org/2000/svg" viewBox="0 0 29.26 17.37"><defs><style>.cls-1{fill:#4d4d4d}</style></defs><g id="Layer_2" data-name="Layer 2"><g id="Layer_2-2" data-name="Layer 2"><path class="cls-1" d="M26.06 11a.46.46 0 00-.46-.51c-.27 0-.44.2-.45.52v3.12h-.72a2.91 2.91 0 00-2.7-2.54c-1.49-.11-2.51.75-3.07 2.54h-9.5V.93h16v1.33c0 .34.19.54.46.54s.45-.21.45-.55V.77C26.06.1 26 0 25.31 0H8.71a.47.47 0 00-.48.47v.45h-.34C6.27.92 4.65.91 3 .92a2 2 0 00-1.7.84 2.63 2.63 0 00-.39 2c0 .25.23.35.48.36h.43v.08c-.11 1.31-.22 2.63-.34 4 0 .08-.12.16-.2.22a4 4 0 00-.8.57A5.77 5.77 0 000 10v4.3a.61.61 0 00.63.34h.74c0 .13 0 .22.06.32a3 3 0 005.84-.09c0-.08.11-.21.18-.21a6.45 6.45 0 01.76 0c.16.39.25.45.68.45h9.82a2.92 2.92 0 005.7 0h1.05c.44 0 .6-.16.6-.6v-2.72c0-.27.01-.51 0-.79zM4.34 16.46a2.06 2.06 0 110-4.11 2.06 2.06 0 110 4.11zm3.88-2.76h-.9a8.86 8.86 0 00-.72-1.2 2.78 2.78 0 00-2.86-1 2.82 2.82 0 00-2.21 2c-.12.36-.38.15-.62.21v-.9-2.4a1.16 1.16 0 011.26-1.26h6.05zM2.48 8.22c.12-1.37.23-2.72.34-4.09h5.39v4.09zm5.74-5H1.85A1.14 1.14 0 013 1.84h5.23zm13.34 13.25a1.88 1.88 0 01-1.92-1.61 1.94 1.94 0 011.93-2.33 2 2 0 010 3.94z"/><path class="cls-1" d="M26.51 9.12a.41.41 0 01-.32.45 1.19 1.19 0 01-.33 0H16a.47.47 0 01-.43-.46.45.45 0 01.43-.42h9.82a1.38 1.38 0 01.29 0 .41.41 0 01.4.43zM25.59 4.09a.76.76 0 01-.3.43c-.08.07-.25.05-.38.05h-6c-.38 0-.6-.18-.59-.47s.21-.44.58-.44H25a1.38 1.38 0 01.29 0 .39.39 0 01.3.43zM25.12 6.86h-5a.47.47 0 01-.46-.46.44.44 0 01.49-.4h4.91a.47.47 0 01.53.38.46.46 0 01-.47.48zM29.26 6.38a.47.47 0 01-.5.48H27a.47.47 0 01-.5-.47c0-.27.2-.44.52-.44h1.71a.45.45 0 01.53.43zM28.34 4.09a.39.39 0 01-.37.46 6.37 6.37 0 01-1.07 0 .41.41 0 01-.37-.47.42.42 0 01.47-.41 3.85 3.85 0 01.48 0 3.85 3.85 0 01.48 0 .42.42 0 01.38.42zM28.46 9.57a7.11 7.11 0 01-1.13 0 .39.39 0 01-.33-.45.42.42 0 01.42-.42 4.34 4.34 0 01.51 0 3.53 3.53 0 01.46 0 .42.42 0 01.42.41.39.39 0 01-.35.46z"/></g></g></svg>