<svg xmlns="http://www.w3.org/2000/svg" viewBox="0 0 26.71 26.72"><path d="M22.13 3.3A12.94 12.94 0 0014.71.06L14.19 0h-1.67c-.48.07-1 .12-1.44.2a13.1 13.1 0 00-7.75 4.34A13.18 13.18 0 00.06 12l-.06.52v1.67c.07.5.12 1 .2 1.5a13.16 13.16 0 004.31 7.67 12.85 12.85 0 007 3.23A13 13 0 0021.42 24a12.83 12.83 0 005.17-8.86A13 13 0 0022.13 3.3zm-.84 14.47a1.29 1.29 0 01-.45.29 12.57 12.57 0 01-1.34.35.41.41 0 00-.38.35c0 .17-.09.34-.12.51a.26.26 0 01-.34.22c-.25 0-.48-.08-.73-.1a2.81 2.81 0 00-2.1.49 6.23 6.23 0 01-.8.54 3.13 3.13 0 01-3.4 0A4.9 4.9 0 0111 20a3 3 0 00-2.57-.53c-.66.12-.67.13-.8-.52a.59.59 0 00-.63-.57 6.57 6.57 0 01-1.23-.33 1.2 1.2 0 01-.46-.32c-.14-.14-.07-.3.13-.34a4.77 4.77 0 003.31-2.77c.35-.67.19-1.07-.51-1.35-.24-.1-.49-.18-.74-.27a2.53 2.53 0 01-.23-.12c-.31-.18-.42-.39-.32-.6a.67.67 0 01.8-.28l.6.19a1.45 1.45 0 00.3 0c.36 0 .44-.1.43-.45 0-.7-.07-1.39-.06-2.09a3.64 3.64 0 012.52-3.54 4.54 4.54 0 014.68.62 3.53 3.53 0 011.42 2.84v1.14c0 .31 0 .72-.06 1.12 0 .21.07.33.24.32a3.94 3.94 0 00.91-.16.84.84 0 01.77.08c.26.17.3.43.06.62a3.4 3.4 0 01-.67.38c-.26.12-.53.19-.77.32a.68.68 0 00-.35 1 4.85 4.85 0 003.38 3c.25.04.31.2.14.38z" fill="#fff" opacity=".81" data-name="Layer 2"/></svg>