<svg xmlns="http://www.w3.org/2000/svg" viewBox="0 0 29.26 17.37"><defs><style>.cls-1{fill:#4d4d4d;}</style></defs><title>Asset 41</title><g id="Layer_2" data-name="Layer 2"><g id="Layer_2-2" data-name="Layer 2"><path class="cls-1" d="M26.06,11a.46.46,0,0,0-.46-.51c-.27,0-.44.2-.45.52v3.12h-.72a2.91,2.91,0,0,0-2.7-2.54c-1.49-.11-2.51.75-3.07,2.54H9.16V.93h16V2.26c0,.34.19.54.46.54s.45-.21.45-.55c0-.49,0-1,0-1.48C26.06.1,26,0,25.31,0H8.71a.47.47,0,0,0-.48.47c0,.14,0,.28,0,.45H7.89C6.27.92,4.65.91,3,.92a2,2,0,0,0-1.7.84,2.63,2.63,0,0,0-.39,2c0,.25.23.35.48.36h.43s0,.06,0,.08c-.11,1.31-.22,2.63-.34,4,0,.08-.12.16-.2.22a4,4,0,0,0-.8.57A5.77,5.77,0,0,0,0,10V14.3a.61.61,0,0,0,.63.34c.25,0,.49,0,.74,0,0,.13,0,.22.06.32a3,3,0,0,0,5.84-.09c0-.08.11-.21.18-.21a6.45,6.45,0,0,1,.76,0c.16.39.25.45.68.45h9.82a2.92,2.92,0,0,0,5.7,0h1.05c.44,0,.6-.16.6-.6,0-.91,0-1.81,0-2.72C26.06,11.52,26.07,11.28,26.06,11ZM4.34,16.46a2.06,2.06,0,1,1,0-4.11,2.06,2.06,0,1,1,0,4.11ZM8.22,13.7h-.9a8.86,8.86,0,0,0-.72-1.2,2.78,2.78,0,0,0-2.86-1,2.82,2.82,0,0,0-2.21,2c-.12.36-.38.15-.62.21v-.9c0-.8,0-1.6,0-2.4A1.16,1.16,0,0,1,2.17,9.15H8.22ZM2.48,8.22c.12-1.37.23-2.72.34-4.09H8.21V8.22Zm5.74-5H1.85A1.14,1.14,0,0,1,3,1.84c1.7,0,3.4,0,5.11,0l.12,0ZM21.56,16.47a1.88,1.88,0,0,1-1.92-1.61,1.94,1.94,0,0,1,1.93-2.33,2,2,0,0,1,0,3.94Z"/><path class="cls-1" d="M26.51,9.12a.41.41,0,0,1-.32.45,1.19,1.19,0,0,1-.33,0H16a.47.47,0,0,1-.43-.46A.45.45,0,0,1,16,8.69h9.82a1.38,1.38,0,0,1,.29,0A.41.41,0,0,1,26.51,9.12Z"/><path class="cls-1" d="M25.59,4.09a.76.76,0,0,1-.3.43c-.08.07-.25.05-.38.05h-6c-.38,0-.6-.18-.59-.47s.21-.44.58-.44H25a1.38,1.38,0,0,1,.29,0A.39.39,0,0,1,25.59,4.09Z"/><path class="cls-1" d="M25.12,6.86h-5a.47.47,0,0,1-.46-.46A.44.44,0,0,1,20.15,6h4.91a.47.47,0,0,1,.53.38A.46.46,0,0,1,25.12,6.86Z"/><path class="cls-1" d="M29.26,6.38a.47.47,0,0,1-.5.48H27a.47.47,0,0,1-.5-.47c0-.27.2-.44.52-.44h1.71A.45.45,0,0,1,29.26,6.38Z"/><path class="cls-1" d="M28.34,4.09a.39.39,0,0,1-.37.46,6.37,6.37,0,0,1-1.07,0,.41.41,0,0,1-.37-.47A.42.42,0,0,1,27,3.67a3.85,3.85,0,0,1,.48,0,3.85,3.85,0,0,1,.48,0A.42.42,0,0,1,28.34,4.09Z"/><path class="cls-1" d="M28.46,9.57a7.11,7.11,0,0,1-1.13,0A.39.39,0,0,1,27,9.12a.42.42,0,0,1,.42-.42,4.34,4.34,0,0,1,.51,0,3.53,3.53,0,0,1,.46,0,.42.42,0,0,1,.42.41A.39.39,0,0,1,28.46,9.57Z"/></g></g></svg>