<svg xmlns="http://www.w3.org/2000/svg" viewBox="0 0 26.71 26.72"><defs><style>.cls-1{opacity:0.81;}.cls-2{fill:#fff;}</style></defs><title>Asset 8</title><g id="Layer_2" data-name="Layer 2"><g id="Layer_2-2" data-name="Layer 2"><g class="cls-1"><path class="cls-2" d="M22.13,3.3A12.94,12.94,0,0,0,14.71.06L14.19,0H12.52c-.48.07-1,.12-1.44.2A13.1,13.1,0,0,0,3.33,4.54,13.18,13.18,0,0,0,.06,12L0,12.52v1.67c.07.5.12,1,.2,1.5a13.16,13.16,0,0,0,4.31,7.67,12.85,12.85,0,0,0,7,3.23A13,13,0,0,0,21.42,24a12.83,12.83,0,0,0,5.17-8.86A13,13,0,0,0,22.13,3.3Zm-.84,14.47a1.29,1.29,0,0,1-.45.29,12.57,12.57,0,0,1-1.34.35.41.41,0,0,0-.38.35c0,.17-.09.34-.12.51a.26.26,0,0,1-.34.22c-.25,0-.48-.08-.73-.1a2.81,2.81,0,0,0-2.1.49,6.23,6.23,0,0,1-.8.54,3.13,3.13,0,0,1-3.4,0A4.9,4.9,0,0,1,11,20a3,3,0,0,0-2.57-.53c-.66.12-.67.13-.8-.52A.59.59,0,0,0,7,18.38a6.57,6.57,0,0,1-1.23-.33,1.2,1.2,0,0,1-.46-.32c-.14-.14-.07-.3.13-.34a4.77,4.77,0,0,0,3.31-2.77c.35-.67.19-1.07-.51-1.35-.24-.1-.49-.18-.74-.27a2.53,2.53,0,0,1-.23-.12c-.31-.18-.42-.39-.32-.6A.67.67,0,0,1,7.75,12l.6.19a1.45,1.45,0,0,0,.3,0c.36,0,.44-.1.43-.45,0-.7-.07-1.39-.06-2.09a3.64,3.64,0,0,1,2.52-3.54,4.54,4.54,0,0,1,4.68.62,3.53,3.53,0,0,1,1.42,2.84v1.14c0,.31,0,.72-.06,1.12,0,.21.07.33.24.32a3.94,3.94,0,0,0,.91-.16.84.84,0,0,1,.77.08c.26.17.3.43.06.62a3.4,3.4,0,0,1-.67.38c-.26.12-.53.19-.77.32a.68.68,0,0,0-.35,1,4.85,4.85,0,0,0,3.38,3C21.4,17.43,21.46,17.59,21.29,17.77Z"/></g></g></g></svg>