<svg xmlns="http://www.w3.org/2000/svg" viewBox="0 0 27.56 27.62"><defs><style>.cls-1{fill:#4d4d4d;}</style></defs><title>Asset 42</title><g id="Layer_2" data-name="Layer 2"><g id="Layer_2-2" data-name="Layer 2"><path class="cls-1" d="M27.47,26.87l-3.16-8.31c-.16-.4-.22-.44-.64-.44h-6c0-.06,0-.08,0-.09a2,2,0,0,1,.14-.25,28,28,0,0,0,2.92-6.39,11,11,0,0,0,.49-5,7.23,7.23,0,0,0-5.33-6A7.18,7.18,0,0,0,8.13,2.6,7.71,7.71,0,0,0,6.38,9.34,18.36,18.36,0,0,0,8,14.51c.58,1.21,1.23,2.38,1.87,3.61h-6a.58.58,0,0,0-.62.43C2.62,20.25,2,22,1.31,23.65L.07,26.93c-.18.45,0,.68.47.69h26.4C27.53,27.62,27.68,27.41,27.47,26.87ZM8,12.17a13.89,13.89,0,0,1-.89-4.56,6.73,6.73,0,1,1,13.42.65,19.3,19.3,0,0,1-2.23,7A41.11,41.11,0,0,1,13.89,22l-.14.17c-.72-1-1.44-2-2.11-3A31.43,31.43,0,0,1,8,12.17Zm2.4,6.76a.47.47,0,0,1,.25.2l2.75,3.76c.3.42.56.42.86,0,.92-1.24,1.82-2.5,2.74-3.74a.48.48,0,0,1,.32-.21c2.06,0,4.12,0,6.18,0h.13c.17.44.34.88.51,1.35l-.79.29c-3.87,1.38-7.74,2.75-11.61,4.14a.34.34,0,0,1-.46-.13q-2.06-2.7-4.13-5.38c-.06-.07-.11-.15-.2-.28ZM3.71,26.81c-.88,0-1.78,0-2.71,0,0-.11.06-.2.09-.28l2.79-7.33a.34.34,0,0,1,.39-.27c.46,0,.93,0,1.39,0a.43.43,0,0,1,.29.13C7.48,21,9,23,10.52,25l.06.12c-1,.34-1.92.63-2.84,1A8.72,8.72,0,0,1,3.71,26.81Zm4.66,0,.18-.1,10.2-3.63c.12,0,.21-.09.32.06l2.75,3.58s0,0,0,.09Zm14.68,0a.33.33,0,0,1-.21-.12c-1-1.3-2-2.61-3-3.91,0,0,0,0,0-.08l4.59-1.64c.72,1.91,1.45,3.8,2.19,5.75Z"/><path class="cls-1" d="M13.84,4.13a3.43,3.43,0,1,0,3.37,3.48A3.42,3.42,0,0,0,13.84,4.13Zm0,6a2.62,2.62,0,1,1,2.57-2.63A2.61,2.61,0,0,1,13.82,10.17Z"/></g></g></svg>