<svg xmlns="http://www.w3.org/2000/svg" viewBox="0 0 27.85 27.12"><defs><style>.cls-1{fill:#4d4d4d;}</style></defs><title>Asset 27</title><g id="Layer_2" data-name="Layer 2"><g id="Layer_2-2" data-name="Layer 2"><path class="cls-1" d="M27.65,4.29a1,1,0,0,0-.62-.2L12.66,3.87,6.43,3.79a.3.3,0,0,1-.34-.25c-.14-.48-.31-1-.47-1.44A3,3,0,0,0,2.72,0C2.09,0,1.46,0,.84,0A.79.79,0,0,0,0,.5V.77a.76.76,0,0,0,.85.53c.59,0,1.17,0,1.76,0A1.69,1.69,0,0,1,4.42,2.6Q6.34,8.4,8.28,14.2a1.59,1.59,0,0,1-.07,1.23A3,3,0,0,0,11,19.72h12.5a.62.62,0,0,0,.55-.61.6.6,0,0,0-.53-.64,1.84,1.84,0,0,0-.41,0c-4,0-8,0-12,0a1.76,1.76,0,0,1-1.66-2.55.64.64,0,0,1,.6-.42l5.46-.56,7.6-.8a3.45,3.45,0,0,0,3.11-2.49c.6-2.26,1.12-4.54,1.65-6.81A.6.6,0,0,0,27.65,4.29ZM25.8,7.88,25.05,11A2.21,2.21,0,0,1,23,12.81l-10,1-3.11.32c-.17,0-.25,0-.3-.18L6.65,5.25a1.46,1.46,0,0,1,0-.17l19.8.29Z"/><path class="cls-1" d="M8.9,21.3A2.94,2.94,0,0,0,6,24.21,2.91,2.91,0,1,0,8.9,21.3Zm0,4.53a1.62,1.62,0,1,1,1.61-1.61A1.62,1.62,0,0,1,8.89,25.83Z"/><path class="cls-1" d="M21.18,21.3a2.91,2.91,0,1,0,2.9,2.92A2.93,2.93,0,0,0,21.18,21.3Zm0,4.52a1.61,1.61,0,0,1-1.62-1.59,1.62,1.62,0,1,1,3.23,0A1.61,1.61,0,0,1,21.18,25.82Z"/></g></g></svg>