<svg xmlns="http://www.w3.org/2000/svg" viewBox="0 0 14.03 27.73"><defs><style>.cls-1{fill:#713c97;}</style></defs><title>Asset 16</title><g id="Layer_2" data-name="Layer 2"><g id="Layer_2-2" data-name="Layer 2"><path class="cls-1" d="M13.53,15.58a3.8,3.8,0,0,1-.51.63Q7.49,21.78,1.93,27.33a1.11,1.11,0,0,1-1.15.35A1.07,1.07,0,0,1,.25,26a3.31,3.31,0,0,1,.26-.27Q6,20.21,11.41,14.76a1.2,1.2,0,0,0,.43-1,1.25,1.25,0,0,0-.43-.76L1.26,2.8C1,2.51.71,2.22.41,2A1.1,1.1,0,0,1,.8,0s0,0,0,0h.49a8.17,8.17,0,0,1,.81.61L13,11.47A3.26,3.26,0,0,1,13.53,15.58Z"/></g></g></svg>