<svg xmlns="http://www.w3.org/2000/svg" viewBox="0 0 16.73 26.55"><defs><style>.cls-1{fill:#4d4d4d;}</style></defs><title>Asset 37</title><g id="Layer_2" data-name="Layer 2"><g id="Layer_2-2" data-name="Layer 2"><path class="cls-1" d="M16.72,2.73c0-.14,0-.28,0-.42A2.53,2.53,0,0,0,15.85.62,2.9,2.9,0,0,0,14.48,0H2.19A6.15,6.15,0,0,0,1.05.5,2.5,2.5,0,0,0,0,2.7Q0,13.26,0,23.83a1.85,1.85,0,0,0,0,.23,2.5,2.5,0,0,0,2.56,2.48q5.79,0,11.59,0A2.45,2.45,0,0,0,15.7,26a2.61,2.61,0,0,0,1-2.21Q16.71,13.27,16.72,2.73ZM8.36,24.84a.7.7,0,0,1-.67-.68.68.68,0,1,1,.67.68Zm6.37-4.41A1.65,1.65,0,0,1,13,22.21H3.77A1.66,1.66,0,0,1,2,20.41V4.67a1.65,1.65,0,0,1,1.3-1.73,2,2,0,0,1,.49,0H13a1.65,1.65,0,0,1,1.78,1.77C14.74,9.93,14.73,15.18,14.73,20.43Z"/></g></g></svg>