<svg xmlns="http://www.w3.org/2000/svg" viewBox="0 0 27.85 27.12"><defs><style>.cls-1{fill:#4d4d4d}</style></defs><g id="Layer_2" data-name="Layer 2"><g id="Layer_2-2" data-name="Layer 2"><path class="cls-1" d="M27.65 4.29a1 1 0 00-.62-.2l-14.37-.22-6.23-.08a.3.3 0 01-.34-.25c-.14-.48-.31-1-.47-1.44A3 3 0 002.72 0H.84A.79.79 0 000 .5v.27a.76.76 0 00.85.53h1.76a1.69 1.69 0 011.81 1.3q1.92 5.8 3.86 11.6a1.59 1.59 0 01-.07 1.23A3 3 0 0011 19.72h12.5a.62.62 0 00.55-.61.6.6 0 00-.53-.64 1.84 1.84 0 00-.41 0h-12a1.76 1.76 0 01-1.66-2.55.64.64 0 01.6-.42l5.46-.56 7.6-.8a3.45 3.45 0 003.11-2.49c.6-2.26 1.12-4.54 1.65-6.81a.6.6 0 00-.22-.55zM25.8 7.88L25.05 11A2.21 2.21 0 0123 12.81l-10 1-3.11.32c-.17 0-.25 0-.3-.18l-2.94-8.7a1.46 1.46 0 010-.17l19.8.29zM8.9 21.3A2.94 2.94 0 006 24.21a2.91 2.91 0 102.9-2.91zm0 4.53a1.62 1.62 0 111.61-1.61 1.62 1.62 0 01-1.62 1.61zM21.18 21.3a2.91 2.91 0 102.9 2.92 2.93 2.93 0 00-2.9-2.92zm0 4.52a1.61 1.61 0 01-1.62-1.59 1.62 1.62 0 113.23 0 1.61 1.61 0 01-1.61 1.59z"/></g></g></svg>