<svg xmlns="http://www.w3.org/2000/svg" viewBox="0 0 26.22 23.32"><defs><style>.cls-1{fill:#4d4d4d;}</style></defs><title>Asset 26</title><g id="Layer_2" data-name="Layer 2"><g id="Layer_2-2" data-name="Layer 2"><path class="cls-1" d="M26.18,7a8.32,8.32,0,0,0-1.4-3.9,7,7,0,0,0-11.36-.32l-.3.38-.31-.39A6.76,6.76,0,0,0,6,.14,6.93,6.93,0,0,0,.55,4.87a8.65,8.65,0,0,0,1,8,18.49,18.49,0,0,0,3.24,3.71c2.39,2.13,4.82,4.23,7.24,6.33a1.53,1.53,0,0,0,2.17-.05Q17,20.44,19.81,18a29.19,29.19,0,0,0,4.35-4.47A10,10,0,0,0,26,10c.12-.5.18-1,.27-1.53V7.27C26.21,7.18,26.19,7.09,26.18,7Zm-2.83,5.06a22,22,0,0,1-3.86,4.21c-2,1.81-4.14,3.58-6.21,5.37l-.17.14c-.54-.47-1.08-.92-1.61-1.39-1.88-1.64-3.78-3.27-5.63-4.94a17.24,17.24,0,0,1-3-3.4A7.13,7.13,0,0,1,2,5.46a5.48,5.48,0,0,1,4.19-3.8,5.09,5.09,0,0,1,5,1.59,16.6,16.6,0,0,1,1.14,1.48,1,1,0,0,0,1.6,0c.1-.13.18-.27.27-.4a6.33,6.33,0,0,1,2.43-2.25,5.21,5.21,0,0,1,5.14.25A5.94,5.94,0,0,1,24.63,7,7.32,7.32,0,0,1,23.35,12.05Z"/></g></g></svg>