<svg xmlns="http://www.w3.org/2000/svg" viewBox="0 0 20.26 22.1"><path d="M18.38 15.58a3.42 3.42 0 00-4 .63 1.3 1.3 0 00-.11.19l-7.54-4.28a3.48 3.48 0 000-2.14l7.45-4.25A3.46 3.46 0 1015.76.16a3.36 3.36 0 00-1.86 1.43 3.46 3.46 0 00-.39 2.94L6.06 8.77a3.46 3.46 0 100 4.56l7.44 4.24v.19a3.43 3.43 0 002.19 4.14c.24.08.49.13.74.2h.9a3.45 3.45 0 001.08-6.48zm-1.59-14.2a2.07 2.07 0 11-2.06 2.08 2.07 2.07 0 012.06-2.08zM3.45 13.12a2.07 2.07 0 112.07-2.06 2.08 2.08 0 01-2.07 2.06zm13.36 7.59a2.07 2.07 0 01-2.08-2.06 2.07 2.07 0 114.14 0 2.07 2.07 0 01-2.06 2.06z" fill="#4d4d4d" data-name="Layer 2"/></svg>