<svg xmlns="http://www.w3.org/2000/svg" viewBox="0 0 31.6 21.62"><defs><style>.cls-1{opacity:0.74;}.cls-2{fill:#fff;}</style></defs><title>Asset 9</title><g id="Layer_2" data-name="Layer 2"><g id="Layer_2-2" data-name="Layer 2"><g class="cls-1"><path class="cls-2" d="M31.39,6.37a11.42,11.42,0,0,0-1-4.12,3.35,3.35,0,0,0-3-2C25.63.11,23.92,0,22.2,0Q14.62,0,7.05.05C6,.05,5,.15,3.91.24a3.21,3.21,0,0,0-2.63,1.9A10.68,10.68,0,0,0,.25,6C.16,6.83.12,7.73.05,8.62,0,8.73,0,8.84,0,9v3.71c0,.57.08,1.16.13,1.74A14.67,14.67,0,0,0,1,18.8,3.89,3.89,0,0,0,2.75,21a5.11,5.11,0,0,0,2.34.47c4.94.06,9.89.12,14.83.14,2.19,0,4.38-.08,6.57-.14a11.24,11.24,0,0,0,1.41-.15,3.28,3.28,0,0,0,2.41-1.88,10.38,10.38,0,0,0,1-3.74A45.55,45.55,0,0,0,31.39,6.37ZM11.87,16.71V4.88l9.85,5.92Z"/></g></g></g></svg>