<svg xmlns="http://www.w3.org/2000/svg" viewBox="0 0 24.06 16.37"><defs><style>.cls-1{fill:#fff;}</style></defs><title>Asset 29</title><g id="Layer_2" data-name="Layer 2"><g id="Layer_2-2" data-name="Layer 2"><path class="cls-1" d="M24.06,2.3A2.2,2.2,0,0,0,23.6.9a2.3,2.3,0,0,0-2-.9H2.13A2.23,2.23,0,0,0,.51.84,2.63,2.63,0,0,0,0,2V14.34a3.65,3.65,0,0,0,.23.73,2.2,2.2,0,0,0,2.13,1.3H21.7a2.23,2.23,0,0,0,2.36-2.29C24.07,10.15,24.06,6.22,24.06,2.3Zm-1.5.13V13.94c0,.67-.26.93-.94.93H2.41a1.21,1.21,0,0,1-.6-.15A.76.76,0,0,1,1.5,14V2.25a.74.74,0,0,1,.74-.75H21.88a.73.73,0,0,1,.68.68Z"/><path class="cls-1" d="M20.9,4.2a1,1,0,0,1-.18.18L12.65,11.5a.8.8,0,0,1-1.24,0l-8-7.09A.86.86,0,0,1,3,3.77a.7.7,0,0,1,.39-.68.7.7,0,0,1,.77,0,3.07,3.07,0,0,1,.34.29l7.3,6.42L12,10l2.31-2c1.8-1.58,3.59-3.17,5.4-4.75A1.26,1.26,0,0,1,20.32,3a.63.63,0,0,1,.66.4A.7.7,0,0,1,20.9,4.2Z"/></g></g></svg>