<svg xmlns="http://www.w3.org/2000/svg" viewBox="0 0 64 64" width="512" height="512"><path d="M61.57 22.18l-29-20a.993.993 0 00-1.14 0l-29 20A1 1 0 003 24h3v1a3.009 3.009 0 003 3v1a3.01 3.01 0 002 2.82v14.36A3.01 3.01 0 009 49v1a3.009 3.009 0 00-3 3v1.18A3.01 3.01 0 004 57v4a1 1 0 001 1h54a1 1 0 001-1v-4a3.01 3.01 0 00-2-2.82V53a3.009 3.009 0 00-3-3v-1a3.01 3.01 0 00-2-2.82V31.82A3.01 3.01 0 0055 29v-1a3.009 3.009 0 003-3v-1h3a1 1 0 00.57-1.82zM11 49a1 1 0 011-1h6a1 1 0 011 1v1h-8zm34-17.18v14.36A3.01 3.01 0 0043 49v1H21v-1a3.01 3.01 0 00-2-2.82V31.82A3.01 3.01 0 0021 29v-1h22v1a3.01 3.01 0 002 2.82zM52 48a1 1 0 011 1v1h-8v-1a1 1 0 011-1zm-5-2V32h4v14zM19 29a1 1 0 01-1 1h-6a1 1 0 01-1-1v-1h8zm-2 3v14h-4V32zm41 25v3H6v-3a1 1 0 011-1h50a1 1 0 011 1zm-3-5a1 1 0 011 1v1H8v-1a1 1 0 011-1zm-2-23a1 1 0 01-1 1h-6a1 1 0 01-1-1v-1h8zm3-4a1 1 0 01-1 1H9a1 1 0 01-1-1v-1h48zM6.21 22L32 4.21 57.79 22z"/><path d="M32 13a1 1 0 111-1h2a3 3 0 00-2-2.816V8h-2v1.184A2.993 2.993 0 0032 15a1 1 0 11-1 1h-2a3 3 0 002 2.816V20h2v-1.184A2.993 2.993 0 0032 13zM39.394 33.081l-7-3a1.007 1.007 0 00-.788 0l-7 3A1 1 0 0024 34v3.515a6.955 6.955 0 002.051 4.95l5.242 5.242a1 1 0 001.414 0l5.242-5.242A6.955 6.955 0 0040 37.515V34a1 1 0 00-.606-.919zM38 37.515a4.971 4.971 0 01-1.465 3.536L32 45.586l-4.535-4.535A4.971 4.971 0 0126 37.515v-2.856l6-2.571 6 2.571z"/><path d="M30.707 37.293l-1.414 1.414 2 2a1 1 0 001.414 0l4-4-1.414-1.414L32 38.586z"/></svg>