<svg xmlns="http://www.w3.org/2000/svg" viewBox="0 0 21.72 18.92"><defs><style>.cls-1{fill:#ebebeb;}</style></defs><title>clients</title><g id="Layer_2" data-name="Layer 2"><g id="Layer_2-2" data-name="Layer 2"><path class="cls-1" d="M21.68,11.23a2.76,2.76,0,0,0-2.22-2.32,7.87,7.87,0,0,0-1.61-.08,2.84,2.84,0,0,0-2.53,1.51,1.28,1.28,0,0,0-.1.15.76.76,0,0,0-.14-.16,4.68,4.68,0,0,0-2.65-1.4,16.2,16.2,0,0,0-2.2-.1A5,5,0,0,0,7.12,9.91c-.22.17-.42.37-.63.55h0a1.4,1.4,0,0,0-.1-.16,2.71,2.71,0,0,0-1.95-1.4A9.57,9.57,0,0,0,2.9,8.83,2.86,2.86,0,0,0,0,11.74v4.49a1.24,1.24,0,0,0,1.32,1.33c1.19,0,2.38,0,3.57,0h.23c0,.08,0,.14,0,.2a1.46,1.46,0,0,0,1.41,1.16h8.55a1.42,1.42,0,0,0,1.33-.9,2.76,2.76,0,0,0,.15-.46h.22c1.19,0,2.37,0,3.56,0a1.28,1.28,0,0,0,1.29-1,1,1,0,0,1,0-.1V11.33A1,1,0,0,1,21.68,11.23ZM5.36,12.44a13.5,13.5,0,0,0-.21,1.42c0,.72,0,1.45,0,2.18v.25H1.27V11.78A1.6,1.6,0,0,1,3,10.1a8.43,8.43,0,0,1,1.23,0,1.54,1.54,0,0,1,1.29,1.53A4.92,4.92,0,0,1,5.36,12.44Zm10,4.91c0,.24-.07.3-.33.3H6.76c-.31,0-.35,0-.35-.36,0-1.1,0-2.2,0-3.3A3.85,3.85,0,0,1,10.3,10.1a11.41,11.41,0,0,1,1.94.09,3.81,3.81,0,0,1,3.07,3.64C15.33,15,15.32,16.18,15.32,17.35Zm5.13-1.15s0,0,0,.08H16.59v-.23c0-.89,0-1.78-.05-2.67a6.56,6.56,0,0,0-.22-1.07,1.76,1.76,0,0,1,.32-1.65,1.3,1.3,0,0,1,.92-.52,8.76,8.76,0,0,1,1.62,0,1.52,1.52,0,0,1,1.27,1.49C20.46,13.16,20.45,14.68,20.45,16.2Z"/><path class="cls-1" d="M10.87,0a3.69,3.69,0,1,0,3.68,3.71A3.71,3.71,0,0,0,10.87,0Zm0,6.11A2.42,2.42,0,1,1,13.28,3.7,2.43,2.43,0,0,1,10.86,6.11Z"/><path class="cls-1" d="M3.4,2.72A2.33,2.33,0,1,0,5.73,5.05,2.34,2.34,0,0,0,3.4,2.72Zm0,3.39A1.08,1.08,0,0,1,2.33,5,1.07,1.07,0,0,1,3.4,4a1.06,1.06,0,0,1,0,2.12Z"/><path class="cls-1" d="M18.33,2.72a2.33,2.33,0,1,0,2.33,2.33A2.33,2.33,0,0,0,18.33,2.72Zm0,3.39A1.06,1.06,0,1,1,19.39,5,1.06,1.06,0,0,1,18.33,6.11Z"/></g></g></svg>