<svg xmlns="http://www.w3.org/2000/svg" viewBox="0 0 34.83 34.66"><defs><style>.cls-1{fill:#333;}</style></defs><title>edit</title><g id="Layer_2" data-name="Layer 2"><g id="Layer_2-2" data-name="Layer 2"><path class="cls-1" d="M34.77,4.31A3.85,3.85,0,0,0,33.61,2.1l-.86-.87a3.89,3.89,0,0,0-5.68,0Q19.44,8.87,11.81,16.5a1.79,1.79,0,0,0-.4.69c-.66,2.33-1.31,4.67-1.95,7-.24.89.3,1.43,1.2,1.19,2.34-.65,4.66-1.29,7-2a1.5,1.5,0,0,0,.69-.4Q26,15.42,33.58,7.78a6.39,6.39,0,0,0,1-1.43,4.37,4.37,0,0,0,.29-1v-1A.67.67,0,0,1,34.77,4.31Zm-23.27,19c.42-1.53.83-3,1.23-4.43l3.2,3.2Zm6.15-2.15-4-4L26.21,4.62l4,4C26.05,12.8,21.84,17,17.65,21.19Zm15-14.93a14.93,14.93,0,0,1-1.1,1L27.46,3.22A11.2,11.2,0,0,1,29,2a1.89,1.89,0,0,1,2.23.21,11.74,11.74,0,0,1,1.41,1.41A2,2,0,0,1,32.61,6.26Z"/><path class="cls-1" d="M33,30.55a4.26,4.26,0,0,1-4.09,4.09c-2.5,0-5,0-7.51,0H4.49A4.29,4.29,0,0,1,.24,31.71,4.79,4.79,0,0,1,0,30.25Q0,19,0,7.8A4.29,4.29,0,0,1,4.39,3.4c2.51,0,5,0,7.54,0a.89.89,0,0,1,1,.87.9.9,0,0,1-1,.85H4.47a2.6,2.6,0,0,0-2.65,2A3.92,3.92,0,0,0,1.74,8q0,11.07,0,22.14a2.59,2.59,0,0,0,2,2.72,3,3,0,0,0,.84.11h24a2.62,2.62,0,0,0,2.78-2.8c0-2.46,0-4.93,0-7.38a.89.89,0,0,1,.71-1,.86.86,0,0,1,1,.92c0,1.36,0,2.72,0,4.08S33,29.29,33,30.55Z"/></g></g></svg>