<svg xmlns="http://www.w3.org/2000/svg" viewBox="0 0 18.78 20.98"><defs><style>.cls-1{fill:#ebebeb;}</style></defs><title>egmaly mabeat</title><g id="Layer_2" data-name="Layer 2"><g id="Layer_2-2" data-name="Layer 2"><path class="cls-1" d="M18.57,8.82a.8.8,0,0,0-.4-.08H4.71c0-.12-.06-.21-.08-.3C4.4,7.52,4.18,6.61,4,5.69a.48.48,0,0,0-.57-.44H2.75a.27.27,0,0,1-.3-.17A1.26,1.26,0,0,0,1,4.42,1.31,1.31,0,0,0,1,7,1.29,1.29,0,0,0,2.45,6.3c.15-.3.39-.15.59-.16,0,0,.15.15.17.25Q4,9.6,4.82,12.82a8.07,8.07,0,0,1,.43,2.29c0,1,0,2,0,2.94v.29h.88V16.62H16.61v1.73h.87v-1.9c0-.61-.11-.72-.71-.72H6.13v-.87H17a.46.46,0,0,0,.48-.39c.07-.26.13-.52.19-.78l1.08-4.31C18.81,9.14,18.79,8.93,18.57,8.82ZM1.3,6.11a.41.41,0,0,1-.42-.43.43.43,0,1,1,.85,0A.41.41,0,0,1,1.3,6.11ZM7.41,14H6.13A.24.24,0,0,1,6,13.87c-.14-.53-.27-1.07-.4-1.62H7.41Zm0-2.65h-2c-.14-.56-.28-1.12-.43-1.7H7.41ZM10.9,14H8.32V12.24H10.9Zm0-2.62H8.31V9.64h2.6Zm.9-1.71H14.4v1.7H11.81ZM14.41,14H11.82V12.25h2.59Zm2.29,0H15.32V12.26h1.81C17,12.83,16.85,13.4,16.7,14Zm.83-3.29c-.17.67-.17.67-.88.67H15.31V9.63h2.47C17.69,10,17.61,10.34,17.53,10.69Z"/><path class="cls-1" d="M16.8,5.26,14.54,3c-.93-.93-1.85-1.86-2.78-2.78-.27-.27-.49-.3-.73-.07q-2.61,2.6-5.2,5.21a.41.41,0,0,0,0,.65L8,8.14c.22-.2.42-.4.68-.65L7.24,6.15h3.69v1.7h.88V6.15h3.66l0,.06L14.16,7.54l.6.61,2-2.05C17.12,5.78,17.12,5.58,16.8,5.26Zm-5.9,0H7.31L10.9,1.65Zm.92,0V1.66l3.59,3.58Z"/><path class="cls-1" d="M15.77,21A1.75,1.75,0,0,1,14,19.26a1.72,1.72,0,0,1,1.73-1.75v.82c-.67.24-.92.53-.85,1a.86.86,0,0,0,.78.75c.5,0,.81-.23,1-.85h.81A1.69,1.69,0,0,1,15.77,21Z"/><path class="cls-1" d="M4.52,21a1.74,1.74,0,1,1-.16-3.47v.84c-.6.16-.9.48-.87.94a.89.89,0,0,0,.75.82c.5.06.8-.18,1-.85h.79A1.67,1.67,0,0,1,4.52,21Z"/></g></g></svg>