<svg xmlns="http://www.w3.org/2000/svg" viewBox="0 0 22.03 18.94"><defs><style>.cls-1{fill:#ebebeb;}</style></defs><title>eradat</title><g id="Layer_2" data-name="Layer 2"><g id="Layer_2-2" data-name="Layer 2"><path class="cls-1" d="M21.94,10.54q-2-5-4-10.07c-.2-.49-.36-.56-.84-.37Q8.82,3.39.57,6.69A2.4,2.4,0,0,0,0,7.14V18.63a.61.61,0,0,0,.61.31H18.42c.48,0,.61-.13.61-.62V12.56a.24.24,0,0,1,.17-.27c.81-.31,1.6-.63,2.4-.95C22,11.16,22.12,11,21.94,10.54Zm-3.78,7.52H.87V7.71H18.16ZM7.33,6.79l.18-.08L14.27,4a.27.27,0,0,1,.34.07A3.23,3.23,0,0,0,16.73,5a.28.28,0,0,1,.29.2c.18.48.37,1,.56,1.44a2,2,0,0,1,.07.19H7.34ZM19,11.43v-4C19,7,19,7,18.67,6.83c-.06,0-.11-.11-.14-.17-.3-.73-.59-1.46-.88-2.19a.5.5,0,0,0-.54-.34A2.52,2.52,0,0,1,15,3.2a.46.46,0,0,0-.57-.15L11.23,4.3,5.61,6.54a2,2,0,0,0-.34.22s-.08.06-.13.06H2.66v0L17.2,1C18.48,4.2,19.76,7.4,21,10.63Z"/><path class="cls-1" d="M16.81,10.54a2.5,2.5,0,0,1-1.48-1.47c-.19-.47-.24-.51-.74-.51H4.43c-.48,0-.54,0-.72.5a2.5,2.5,0,0,1-1.47,1.48c-.45.17-.51.24-.51.72,0,1.08,0,2.17,0,3.25,0,.47.06.55.49.71a2.49,2.49,0,0,1,1.49,1.47c.19.48.23.52.77.52H14.57c.54,0,.56,0,.75-.51a2.47,2.47,0,0,1,1.48-1.47c.44-.17.5-.25.5-.71V11.25C17.3,10.78,17.24,10.71,16.81,10.54Zm-.37,3.7a.26.26,0,0,1-.17.28,3.31,3.31,0,0,0-1.66,1.66.24.24,0,0,1-.26.17q-4.83,0-9.66,0a.25.25,0,0,1-.27-.18,3.31,3.31,0,0,0-1.65-1.65.26.26,0,0,1-.18-.29c0-.9,0-1.81,0-2.71a.25.25,0,0,1,.17-.27A3.33,3.33,0,0,0,4.42,9.6a.26.26,0,0,1,.29-.18h9.61a.3.3,0,0,1,.31.19,3.2,3.2,0,0,0,1.62,1.62.29.29,0,0,1,.2.3C16.44,12.44,16.44,13.34,16.44,14.24Z"/><path class="cls-1" d="M9.51,10.29a2.6,2.6,0,1,0,2.6,2.59A2.58,2.58,0,0,0,9.51,10.29Zm0,4.32a1.73,1.73,0,1,1,1.71-1.73A1.73,1.73,0,0,1,9.53,14.61Z"/><path class="cls-1" d="M4.75,12.23a.66.66,0,0,0-.64.65.65.65,0,0,0,1.3,0A.67.67,0,0,0,4.75,12.23Zm0,.89H4.71c0-.08-.14-.15-.15-.24a.17.17,0,0,1,.2-.2c.08,0,.19.13.19.2S4.86,13,4.8,13.12Z"/><path class="cls-1" d="M14.28,12.23a.65.65,0,0,0-.65.66.63.63,0,0,0,.65.63.64.64,0,0,0,.65-.64A.67.67,0,0,0,14.28,12.23Zm0,.84c-.06,0-.18-.11-.19-.18s.09-.17.15-.25h.1c.05.08.15.17.14.25A.25.25,0,0,1,14.27,13.07Z"/></g></g></svg>