<svg xmlns="http://www.w3.org/2000/svg" viewBox="0 0 17.25 17.89"><defs><style>.cls-1{fill:#ebebeb;}</style></defs><title>events</title><g id="Layer_2" data-name="Layer 2"><g id="Layer_2-2" data-name="Layer 2"><path class="cls-1" d="M17,2.62a1.6,1.6,0,0,0-1.33-.68h-1.4c0-.36,0-.7,0-1a1.31,1.31,0,0,0,0-.34.75.75,0,0,0-.56-.5l-.15,0H11.84l-.22.09a.69.69,0,0,0-.41.68V1.93H6V.77A.71.71,0,0,0,5.47,0L5.41,0H3.77l-.2.07A.73.73,0,0,0,3,.82v.93a1.34,1.34,0,0,1,0,.19H2.17a5.26,5.26,0,0,0-.89,0A1.58,1.58,0,0,0,0,3.6V16a2,2,0,0,0,.41,1.29,1.49,1.49,0,0,0,1.23.64H3.81c3.89,0,7.78,0,11.67,0a1.75,1.75,0,0,0,1.74-1.62q0-.3,0-.6V3.73A1.81,1.81,0,0,0,17,2.62ZM12,.88h1.32V3.22H12ZM4,.87h1.2V3.22H4ZM16.1,16.8a.72.72,0,0,1-.48.22H1.88a.89.89,0,0,1-1-1V6.9h15.5c0,.06,0,.12,0,.17V16A1.13,1.13,0,0,1,16.1,16.8ZM16.38,6H.88a.91.91,0,0,1,0-.17V3.58a.72.72,0,0,1,.78-.78H3v.4a.85.85,0,0,0,.85.88c.48,0,1,0,1.43,0A.79.79,0,0,0,6,3.31v-.5h5.17v.45a.8.8,0,0,0,.84.83h1.22a1,1,0,0,0,.63-.2.73.73,0,0,0,.32-.6V2.81h1.41a.73.73,0,0,1,.75.77Z"/><path class="cls-1" d="M12.26,10.83a.46.46,0,0,0-.42-.31l-1.92-.28a.26.26,0,0,1-.23-.17c-.28-.58-.57-1.15-.85-1.72C8.75,8.17,8.64,8,8.42,8A.49.49,0,0,0,8,8.34c-.28.59-.57,1.16-.86,1.74a.3.3,0,0,1-.18.15L5,10.52c-.21,0-.4.09-.47.31a.5.5,0,0,0,.19.52l1.38,1.32a.26.26,0,0,1,.09.26c-.07.35-.13.7-.19,1s-.13.69-.18,1a.44.44,0,0,0,.66.41c.59-.3,1.18-.62,1.77-.93a.28.28,0,0,1,.28,0c.57.31,1.14.6,1.71.9a.47.47,0,0,0,.57,0A.53.53,0,0,0,11,14.8c-.11-.62-.22-1.24-.34-1.85a.29.29,0,0,1,.09-.29l1.39-1.33A.46.46,0,0,0,12.26,10.83Zm-2,1c-.12.12-.24.24-.37.35a.62.62,0,0,0-.21.64c.09.44.16.89.24,1.37l-.17-.08L8.7,13.54a.57.57,0,0,0-.59,0c-.4.23-.81.44-1.25.68L7,13.44c0-.22.06-.44.11-.65a.54.54,0,0,0-.18-.55L6,11.35l-.09-.1.95-.14c.15,0,.29,0,.44-.06a.53.53,0,0,0,.48-.35c.2-.42.41-.83.63-1.27l.09.14c.19.4.39.79.59,1.19a.46.46,0,0,0,.4.28l1.26.18.12,0Z"/></g></g></svg>