<svg xmlns="http://www.w3.org/2000/svg" viewBox="0 0 26.62 53.36"><defs><style>.cls-1{fill:#1b80bb;}</style></defs><title>فيس</title><g id="Layer_2" data-name="Layer 2"><g id="Layer_2-2" data-name="Layer 2"><path class="cls-1" d="M26.62.37V8.86H26c-1.8,0-3.61,0-5.41.11a3.07,3.07,0,0,0-3.2,3.08c-.16,2.63,0,5.27,0,8h8.53c-.39,3.19-.78,6.32-1.18,9.48H17.26a4.81,4.81,0,0,0,0,.49V52.9c0,.16,0,.31,0,.46H7.67c0-.15,0-.31,0-.46V29.52H0V20H7.7v-.65c0-2.8,0-5.6.1-8.38a11.33,11.33,0,0,1,3.89-8.41A11.25,11.25,0,0,1,17.7.1c.17,0,.34-.07.5-.1h4l2.75.21Z"/></g></g></svg>