<svg xmlns="http://www.w3.org/2000/svg" viewBox="0 0 42.29 42.29"><g data-name="Layer 2"><path d="M42.29 19.66v3.14a5.35 5.35 0 00-.18 1.2 21.16 21.16 0 01-4.54 10.46 18.35 18.35 0 01-3.2 3.15l-.51-.41L27.5 32a12.87 12.87 0 004.5-4.43 14.28 14.28 0 00.83-1.66c.14-.3.07-.37-.25-.37H22c-.31 0-.39-.09-.39-.39v-7.6c0-.27.06-.38.36-.38h19.6c.26 0 .36.07.4.34.09.64.19 1.27.23 1.92.02.09 0 .18.09.23z" fill="#518ef7"/><path d="M34.37 37.61a.6.6 0 01-.11.12 21.13 21.13 0 01-9.9 4.32 9.14 9.14 0 00-1.64.24H19.5a8.74 8.74 0 00-1.5-.24A21 21 0 012.58 31.27a.56.56 0 010-.12l6.83-5.57a13 13 0 003.5 5 12.58 12.58 0 0014.3 1.58l.29-.16 6.36 5.19z" fill="#28b346"/><path d="M34.39 5.09c-2.12 1.71-4.22 3.44-6.33 5.17a.38.38 0 01-.53.06 12.57 12.57 0 00-18.19 6.52l-.09.16L7 15.19l-4.62-3.74a18.31 18.31 0 012.85-4.22A20.54 20.54 0 0117.28.37a20.81 20.81 0 0117.1 4.28c.21.16.25.24.01.44z" fill="#f04336"/><path d="M9.37 25.58l-6.83 5.57A19.26 19.26 0 01.36 25a21 21 0 011.76-13.08c.08-.16.17-.31.26-.47L7 15.19 9.25 17a14.84 14.84 0 00-.67 3.75 13.55 13.55 0 00.79 4.83z" fill="#faba01"/></g></svg>