<svg xmlns="http://www.w3.org/2000/svg" viewBox="0 0 18.99 18.21"><defs><style>.cls-1{fill:#ebebeb;}</style></defs><title>growth chart</title><g id="Layer_2" data-name="Layer 2"><g id="Layer_2-2" data-name="Layer 2"><path class="cls-1" d="M18.2,17.41v-7a.82.82,0,0,0-.9-.91c-1,0-1.93,0-2.9,0a.87.87,0,0,0-1,1c0,2.24,0,4.49,0,6.73v.23H11.87V8.82A.8.8,0,0,0,11,7.93H8a.8.8,0,0,0-.91.91V17.4H5.53v-.24c0-1.2,0-2.4,0-3.59a.79.79,0,0,0-.88-.9H1.7a.81.81,0,0,0-.91.91v3.84H.36a.38.38,0,0,0-.36.41.44.44,0,0,0,.3.37H18.69l.3-.3v-.22C18.82,17.35,18.5,17.43,18.2,17.41Zm-13.46,0H1.6V13.47H4.74Zm6.33,0H7.92V8.72h3.15Zm6.32,0H14.26V10.31h3.13Z"/><path class="cls-1" d="M18.69,18.21l.3-.3v.3Z"/><path class="cls-1" d="M17.41.44c0,1,0,2,0,3v.13a.39.39,0,0,1-.78,0c0-.29,0-.58,0-.87s0-.84,0-1.26a.32.32,0,0,0,0-.07l-.16.15-3.8,3.81A.56.56,0,0,1,12,5.5L6.23,4.05a.28.28,0,0,0-.3.08C4.74,5.33,3.55,6.51,2.36,7.7a1.14,1.14,0,0,1-.16.15.39.39,0,0,1-.53-.56l.12-.14L5.57,3.37a.55.55,0,0,1,.58-.16l5.78,1.46a.35.35,0,0,0,.37-.11L15.87,1A1.39,1.39,0,0,0,16,.81h-.22c-.63,0-1.26,0-1.89,0-.28,0-.45-.14-.46-.37A.38.38,0,0,1,13.89,0H17A.41.41,0,0,1,17.41.44Z"/></g></g></svg>