<svg xmlns="http://www.w3.org/2000/svg" viewBox="0 0 19.58 19.58"><defs><style>.cls-1{fill:#ebebeb;}</style></defs><title>home</title><g id="Layer_2" data-name="Layer 2"><g id="Layer_2-2" data-name="Layer 2"><path class="cls-1" d="M19.25.53A1.47,1.47,0,0,0,18.39,0H11.81A1.5,1.5,0,0,0,10.6,1.73v8.2a1.44,1.44,0,0,0,1.5,1.49H18a1.43,1.43,0,0,0,1.51-1.16s0,0,0,0v-9A5.47,5.47,0,0,0,19.25.53Zm-.9,9.35c0,.26-.05.32-.32.32H12.16c-.28,0-.34-.06-.34-.34V1.55c0-.27.06-.33.32-.33H18c.27,0,.32.05.32.33Z"/><path class="cls-1" d="M9,9.67A1.43,1.43,0,0,0,7.54,8.16H1.42A1.39,1.39,0,0,0,.09,9.1c0,.09-.06.18-.09.27v9a3.38,3.38,0,0,0,.18.44,1.49,1.49,0,0,0,1,.75H7.76A1.51,1.51,0,0,0,9,17.83V9.67ZM7.75,18c0,.29,0,.34-.34.34H1.56c-.29,0-.34,0-.34-.34V9.74c0-.32.05-.36.35-.36H7.4c.3,0,.35,0,.35.35Z"/><path class="cls-1" d="M9,1.46A1.32,1.32,0,0,0,8.47.35,5.21,5.21,0,0,0,7.76,0H1.19L.82.14A1.4,1.4,0,0,0,.07,1c0,.07,0,.13-.07.2V5.31A.32.32,0,0,1,0,5.4,1.44,1.44,0,0,0,1.46,6.53H7.52A1.42,1.42,0,0,0,9,5.07C9,3.87,9,2.66,9,1.46ZM7.75,5c0,.27-.06.32-.32.32H1.56c-.28,0-.34-.06-.34-.33V1.54c0-.26.06-.32.32-.32h5.9c.25,0,.31.06.31.32Z"/><path class="cls-1" d="M19.55,14.21A1.42,1.42,0,0,0,18,13.05H16.47c-1.46,0-2.93,0-4.39,0a1.41,1.41,0,0,0-1.47,1.42c0,1.23,0,2.46,0,3.68a1.37,1.37,0,0,0,.8,1.28c.12.06.27.1.4.15h6.54a1.43,1.43,0,0,0,.92-.56,5.11,5.11,0,0,0,.31-.67V14.26A.09.09,0,0,1,19.55,14.21ZM18.35,18c0,.27-.05.32-.32.32H12.16c-.28,0-.34-.05-.34-.32V14.61c0-.28.06-.34.34-.34H18c.27,0,.32.06.32.32Z"/></g></g></svg>