<svg xmlns="http://www.w3.org/2000/svg" viewBox="0 0 11.46 7.79"><defs><style>.cls-1{fill:#58595b;}</style></defs><title>mail</title><g id="Layer_2" data-name="Layer 2"><g id="Layer_1-2" data-name="Layer 1"><path class="cls-1" d="M11.05.24A1.15,1.15,0,0,0,10.29,0H1A1.09,1.09,0,0,0,.26.37,1.4,1.4,0,0,0,0,.92v6l0,0a1.05,1.05,0,0,0,1.11.89h9.2a1.23,1.23,0,0,0,.33,0,1.07,1.07,0,0,0,.8-1.07V1.1A1,1,0,0,0,11.05.24Zm-.3,6.4a.4.4,0,0,1-.45.44H1.15a.4.4,0,0,1-.44-.44c0-1.83,0-3.66,0-5.48A.41.41,0,0,1,1.15.71H10.3a.41.41,0,0,1,.45.45C10.74,3,10.74,4.81,10.75,6.64Z"/><path class="cls-1" d="M9.91,2.05l-.58.52L6,5.49a.37.37,0,0,1-.56,0L1.6,2.09a.49.49,0,0,1-.16-.24.31.31,0,0,1,.16-.37.35.35,0,0,1,.41,0l.69.6,3,2.63.05,0,1.12-1L9.38,1.56a.42.42,0,0,1,.32-.13.33.33,0,0,1,.31.23A.34.34,0,0,1,9.91,2.05Z"/></g></g></svg>