<svg xmlns="http://www.w3.org/2000/svg" viewBox="0 0 28 26.48"><defs><style>.cls-1{fill:#ebebeb;}</style></defs><title>markting</title><g id="Layer_2" data-name="Layer 2"><g id="Layer_2-2" data-name="Layer 2"><path class="cls-1" d="M22.85,13c-.54-1-1.1-1.92-1.66-2.88a.38.38,0,0,1,0-.5c.32-.47.62-.95.94-1.41a.66.66,0,0,0,0-.77c-.34-.56-.66-1.13-1-1.7a.65.65,0,0,0-.67-.37c-.56,0-1.12.06-1.69.11a.42.42,0,0,1-.47-.25c-.59-1.06-1.2-2.1-1.81-3.15a1.62,1.62,0,0,0-1.22-.87A1.71,1.71,0,0,0,13.65,2Q10.18,6.47,6.7,10.89a1.24,1.24,0,0,1-.35.3c-1.43.84-2.87,1.66-4.3,2.49a3.75,3.75,0,0,0-1.64,1.7A9.36,9.36,0,0,0,0,16.68v.87a.61.61,0,0,1,.05.12,3.79,3.79,0,0,0,4,3.21,11.56,11.56,0,0,0,1.25-.2l.14.23,2.47,4.28a3.58,3.58,0,0,0,.31.45,2.08,2.08,0,0,0,2,.82,2.11,2.11,0,0,0,1.7-1.31,2.18,2.18,0,0,0-.18-2l-1.58-2.74,1.22-.7c.52-.31.59-.54.29-1.07l-.59-1,.28-.07,8.19-1.6c.71-.14,1.42-.29,2.12-.41A1.64,1.64,0,0,0,22.85,13Zm-2.6-6.51a.26.26,0,0,1,.18.13c.21.34.41.69.6,1,0,0,.06.15,0,.19-.19.32-.4.62-.62,1l-1.3-2.26Zm-15,12.89a2.72,2.72,0,0,1-4-1.52A2.64,2.64,0,0,1,2.3,14.83c1-.65,2.07-1.22,3.1-1.82l1.32-.76L9.45,17a.61.61,0,0,1-.14.1C8,17.85,6.59,18.65,5.22,19.42Zm5.6,4.3a1.07,1.07,0,0,1,0,1.21,1,1,0,0,1-1.07.44,1,1,0,0,1-.78-.54L6.22,20.11,8.11,19c.44.76.87,1.5,1.29,2.24S10.35,22.9,10.82,23.72Zm-1.21-4.3-.55-1,.94-.54.55.94Zm8-4.24c-2.29.45-4.58.89-6.86,1.35a.27.27,0,0,1-.34-.16L7.69,11.73a.25.25,0,0,1,0-.33l5.93-7.54.08-.12,6.32,11Zm3.77-.73a.24.24,0,0,1-.28-.14L14.52,3c-.14-.25.23-.68.57-.67a.63.63,0,0,1,.54.41l2.16,3.73,4,7C22.15,14,22,14.36,21.34,14.45Z"/><path class="cls-1" d="M27.64,3.38l-1.85,1-1,.55c-.13.07-.27.1-.47.18a1.82,1.82,0,0,1-.4-.38.46.46,0,0,1,.1-.58A1.25,1.25,0,0,1,24.24,4L27.1,2.44a.56.56,0,0,1,.83.17A.55.55,0,0,1,27.64,3.38Z"/><path class="cls-1" d="M27.24,8.73c-.08.31-.36.45-.74.35l-2-.52a.55.55,0,0,1-.45-.62.54.54,0,0,1,.64-.45l.31.07L26.77,8C27.16,8.14,27.33,8.4,27.24,8.73Z"/><path class="cls-1" d="M22.6.7c-.17.69-.36,1.38-.55,2.07a.53.53,0,0,1-.65.41c-.26-.05-.42-.27-.41-.65s.26-1,.41-1.54a5.5,5.5,0,0,1,.16-.58A.53.53,0,0,1,22.21,0,.54.54,0,0,1,22.6.7Z"/><path class="cls-1" d="M5.55,18c-.34.2-.68.4-1,.57a2.76,2.76,0,0,1-.59.17A1.68,1.68,0,0,1,2.46,18a.54.54,0,1,1,.86-.66c.34.38.5.4.94.15.25-.14.49-.29.74-.42a.56.56,0,0,1,.79.17A.55.55,0,0,1,5.55,18Z"/><path class="cls-1" d="M7.76,16.38a.54.54,0,0,1-.54.53.54.54,0,0,1-.54-.53.52.52,0,0,1,.54-.53A.53.53,0,0,1,7.76,16.38Z"/></g></g></svg>