<svg xmlns="http://www.w3.org/2000/svg" viewBox="0 0 8.48 8.49"><defs><style>.cls-1{fill:#58595b;}</style></defs><title>phone</title><g id="Layer_2" data-name="Layer 2"><g id="Layer_1-2" data-name="Layer 1"><path class="cls-1" d="M8.48,6.76v0a.24.24,0,0,0,0,.08.85.85,0,0,1-.25.53l-.75.75A1,1,0,0,1,7,8.42a2,2,0,0,1-1.1,0A5.83,5.83,0,0,1,4.2,7.6,11.42,11.42,0,0,1,2.41,6.14,10,10,0,0,1,.46,3.53,3.84,3.84,0,0,1,0,1.94a1.22,1.22,0,0,1,.38-1C.57.76.75.58.93.39A1.15,1.15,0,0,1,1.53,0h.23a1.08,1.08,0,0,1,.45.2l.06,0L3.4,1.38a.81.81,0,0,1,.09,1.09.75.75,0,0,1-.32.23.88.88,0,0,0-.52.46.69.69,0,0,0,0,.47,2.77,2.77,0,0,0,.64,1.13,3.83,3.83,0,0,0,1.2,1,1,1,0,0,0,.63.14.79.79,0,0,0,.63-.44,2,2,0,0,1,.19-.35A.78.78,0,0,1,7,5l.1.09L8.19,6.17a.81.81,0,0,1,.27.55A.05.05,0,0,0,8.48,6.76Z"/></g></g></svg>