<svg xmlns="http://www.w3.org/2000/svg" viewBox="0 0 19.98 24.72"><defs><style>.cls-1{fill:#ebebeb;}</style></defs><title>products</title><g id="Layer_2" data-name="Layer 2"><g id="Layer_2-2" data-name="Layer 2"><path class="cls-1" d="M20,9.23a.76.76,0,0,0-.56-.83C18,7.85,16.49,7.27,15,6.7l-.36-.16a4.94,4.94,0,1,0-9.33,0c-.15.06-.28.12-.41.16C3.47,7.28,2,7.85.56,8.4A.76.76,0,0,0,0,9.23q0,5.56,0,11.13a.74.74,0,0,0,.55.8c3,1.16,6,2.34,9,3.49a1.22,1.22,0,0,0,.8,0c3-1.14,6-2.31,9-3.48.54-.2.58-.28.58-.85Q20,14.78,20,9.23ZM18,9l-1.67.64a.31.31,0,0,1-.19,0L13.35,8.56l.85-1Zm-4,2.89a.31.31,0,0,1,.15-.23c.54-.22,1.08-.42,1.65-.64v2.2c-1-.73-1.19.38-1.8.71C13.93,13.2,13.92,12.54,13.93,11.88Zm-.44-1.17a.62.62,0,0,1-.33,0l-2.28-.89,1.34-.49a.2.2,0,0,1,.15,0l2.34.91ZM10,1.09A3.85,3.85,0,1,1,6.15,4.91,3.82,3.82,0,0,1,10,1.09ZM9.45,23.25c0,.05,0,.1,0,.19L1.09,20.21V9.78l1,.38,7,2.73c.18.07.33.11.33.38Q9.44,18.27,9.45,23.25ZM10.1,12a.48.48,0,0,1-.29,0L2.23,9.06,2.09,9c.6-.24,1.17-.46,1.75-.67a.37.37,0,0,1,.25,0l7.57,2.95.14.1C11.21,11.6,10.66,11.82,10.1,12Zm8.56,8.29-7.93,3.07-.19.06V13l2.31-.9v3.07c0,.29.06.54.36.65a.59.59,0,0,0,.68-.23c.43-.47.87-.93,1.33-1.42l.69.44c.48.29.9.07.9-.51,0-1.06,0-2.12,0-3.18a.42.42,0,0,1,.34-.49c.58-.2,1.14-.44,1.75-.67V19.87C18.9,20.07,18.9,20.22,18.66,20.31Z"/><path class="cls-1" d="M12.21,4.29,10.35,6l-.57.52a.55.55,0,0,1-.79,0c-.43-.36-.87-.72-1.29-1.09a.52.52,0,0,1-.1-.8.54.54,0,0,1,.79,0c.32.26.62.53,1,.83l1.76-1.58.34-.31c.38-.34.7-.37.93-.1S12.56,4,12.21,4.29Z"/></g></g></svg>