<svg xmlns="http://www.w3.org/2000/svg" viewBox="0 0 22.81 20.38"><defs><style>.cls-1{fill:#ebebeb;}</style></defs><title>raseed</title><g id="Layer_2" data-name="Layer 2"><g id="Layer_2-2" data-name="Layer 2"><path class="cls-1" d="M22.53,4.78l-.12-.07C19.72,3.18,17,1.66,14.35.12a.74.74,0,0,0-.85,0L.4,8.41a2.52,2.52,0,0,0-.4.4v.26c.13.13.23.3.39.38L8.5,14.08a.7.7,0,0,0,.77,0l3.57-2.26.22-.16a.51.51,0,0,0-.18-.83.59.59,0,0,0-.58.12C11.21,11.61,10.12,12.29,9,13a.3.3,0,0,1-.36,0L1.74,9l-.2-.12.08-.06L5.78,6.23c.13-.08.2,0,.3,0l7.47,4.24a.32.32,0,0,1,.18.31c0,1.85,0,3.7,0,5.55a.55.55,0,0,0,.92.51c.8-.51,1.6-1,2.41-1.52a.75.75,0,0,0,.4-.71c0-2,0-3.91,0-5.86A.7.7,0,0,0,17,8.09L9.82,4l-.23-.14.11-.08,4.12-2.6c.13-.08.21,0,.32,0q3.45,2,6.92,3.94l.22.13-.23.15L18.27,7.17a.51.51,0,0,0-.23.74.53.53,0,0,0,.76.14l3.75-2.36A.51.51,0,0,0,22.53,4.78Zm-9,2.48,2.22,1.26.2.13L15.33,9a.52.52,0,0,0-.2.74.52.52,0,0,0,.76.12l.51-.31c0,.1,0,.17,0,.23v4.52a.32.32,0,0,1-.17.32L15,15.43l-.23.13v-.28c0-1.6,0-3.2,0-4.81a.72.72,0,0,0-.4-.69L7.14,5.68l-.25-.14,1.61-1a.33.33,0,0,1,.25,0Z"/><path class="cls-1" d="M13.06,15.76a1.3,1.3,0,0,1-.23.18L9.28,18.18a.69.69,0,0,1-.79,0L.41,13.6A2.43,2.43,0,0,1,0,13.22V13c.23-.43.48-.5.91-.25,2.58,1.47,5.17,2.93,7.75,4.41a.32.32,0,0,0,.39,0l3.26-2.05c.31-.2.55-.19.75,0A.5.5,0,0,1,13.06,15.76Z"/><path class="cls-1" d="M13.05,17.83a.65.65,0,0,1-.21.16L9.27,20.25a.68.68,0,0,1-.77,0L.39,15.65A2.34,2.34,0,0,1,0,15.27V15c.25-.42.49-.48.92-.23l7.75,4.41a.3.3,0,0,0,.37,0l3.26-2.05a.6.6,0,0,1,.56-.12A.5.5,0,0,1,13.05,17.83Z"/><path class="cls-1" d="M13.07,13.69a1.3,1.3,0,0,1-.23.18L9.26,16.12a.66.66,0,0,1-.76,0L.4,11.53a2.71,2.71,0,0,1-.4-.36V10.9c.21-.43.47-.51.9-.27L8.65,15a.33.33,0,0,0,.41,0l3.22-2a1.16,1.16,0,0,1,.43-.15.44.44,0,0,1,.45.31A.47.47,0,0,1,13.07,13.69Z"/><path class="cls-1" d="M22.67,9.71a.83.83,0,0,1-.21.16l-3.61,2.28a1.91,1.91,0,0,1-.31.14A.52.52,0,0,1,18,12a.45.45,0,0,1,.08-.55.87.87,0,0,1,.21-.17L21.92,9c.31-.19.55-.18.75,0A.49.49,0,0,1,22.67,9.71Z"/><path class="cls-1" d="M22.8,7.42a1.13,1.13,0,0,1-.28.34c-1.24.8-2.49,1.58-3.74,2.36a.51.51,0,0,1-.73-.12.52.52,0,0,1,.21-.76L21.33,7.3c.23-.14.46-.3.7-.43S22.81,6.91,22.8,7.42Z"/><path class="cls-1" d="M22.51,11.91l-1.17.73c-.83.52-1.65,1-2.48,1.56a1.74,1.74,0,0,1-.33.15.53.53,0,0,1-.52-.3.49.49,0,0,1,.08-.54.8.8,0,0,1,.17-.15L22,11a.52.52,0,0,1,.84.27A.54.54,0,0,1,22.51,11.91Z"/></g></g></svg>