<svg xmlns="http://www.w3.org/2000/svg" viewBox="0 0 25.09 23.35"><defs><style>.cls-1{fill:#ebebeb;}</style></defs><title>requests</title><g id="Layer_2" data-name="Layer 2"><g id="Layer_2-2" data-name="Layer 2"><path class="cls-1" d="M25.09,11.64a1.54,1.54,0,0,0-1.59-1.59H22.31a1.34,1.34,0,0,0-1.48-.92c-.35,0-.7,0-1.08,0V8.83c0-1,0-1.93,0-2.89a.49.49,0,0,0-.27-.47L10.17.09a.51.51,0,0,0-.58,0L.3,5.46A.52.52,0,0,0,0,6V16.7a.52.52,0,0,0,.3.51l9.26,5.36a.59.59,0,0,0,.66,0l3-1.71,1.9-1.09v2a1.51,1.51,0,0,0,1.58,1.58h6.85a1.52,1.52,0,0,0,1.58-1.56Zm-4-1.79a.53.53,0,1,1,0,1.06h-2a.53.53,0,1,1,0-1.06ZM1.26,5.72,9.72.85a.34.34,0,0,1,.29,0L13.77,3l.05,0-.22.13L5.24,8a.36.36,0,0,1-.41,0L1.1,5.85A1.53,1.53,0,0,1,1.26,5.72ZM9.55,21.55s0,.08,0,.14l-.19-.08L.94,16.76a.38.38,0,0,1-.23-.39c0-3.21,0-6.41,0-9.62v-.3L2.76,7.62l6.59,3.8a.31.31,0,0,1,.2.3Zm.57-10.75a.41.41,0,0,1-.47,0L6.05,8.71l-.28-.17L6,8.4l8.42-4.85a.38.38,0,0,1,.31,0L18.6,5.77l.09.07-3,1.74Zm5,.88c0,2.33,0,4.67,0,7a.38.38,0,0,1-.21.38c-1.46.83-2.92,1.68-4.37,2.52l-.25.13V11.78a.32.32,0,0,1,.17-.34l8.44-4.89L19,6.47V9.12a1.32,1.32,0,0,0-1.14.84s-.12.08-.18.09h-1A1.53,1.53,0,0,0,15.08,11.68Zm9.29,10.14a.78.78,0,0,1-.83.82h-6.9a.78.78,0,0,1-.84-.84c0-1.7,0-3.4,0-5.1v-5a.84.84,0,0,1,.94-.94c.32,0,.64,0,1,0a.3.3,0,0,1,.24.15,1.24,1.24,0,0,0,1.17.7h2a1.24,1.24,0,0,0,1.17-.7.3.3,0,0,1,.24-.15c.35,0,.71,0,1.06,0a.81.81,0,0,1,.84.85Q24.39,16.71,24.37,21.82Z"/><path class="cls-1" d="M19,16.45a.36.36,0,0,0-.4-.41H17.07c-.28,0-.41.14-.41.41,0,.52,0,1.05,0,1.57,0,.27.13.4.41.41h1.57A.36.36,0,0,0,19,18c0-.25,0-.51,0-.76S19.05,16.72,19,16.45Zm-.71,1.25h-.94v-.93h.94Z"/><path class="cls-1" d="M18.9,20.27c-.21.18-.44.07-.6-.26h-.92V21l.25.07,0,.05c.06.18.13.37-.05.51a.85.85,0,0,1-.76.06c-.2-.06-.21-.26-.2-.45V19.75c0-.33.13-.46.46-.46h1.47c.21,0,.4.06.43.27S19.13,20.08,18.9,20.27Z"/><path class="cls-1" d="M18.86,13.69a.34.34,0,0,1-.47-.1.2.2,0,0,0-.14-.08h-.86a.58.58,0,0,0,0,.1v.84l.18.08a.33.33,0,0,1,.17.41c-.06.21-.28.29-.71.25a.34.34,0,0,1-.35-.33c0-.58,0-1.15,0-1.73a.34.34,0,0,1,.36-.33h1.67a.33.33,0,0,1,.34.31C19.06,13.32,19.1,13.56,18.86,13.69Z"/><path class="cls-1" d="M19.93,13.8,18.79,15c-.25.24-.41.24-.65,0s-.33-.32-.48-.48a.34.34,0,0,1,0-.52.33.33,0,0,1,.49,0l.31.33,1-1c.2-.2.42-.22.57-.07S20.14,13.59,19.93,13.8Z"/><path class="cls-1" d="M20,20.29l-1.29,1.28a.34.34,0,0,1-.52,0l-.53-.5,0-.05c-.11-.19-.15-.4.06-.54.39-.24.53.19.8.34l1-1a.36.36,0,0,1,.59,0A.34.34,0,0,1,20,20.29Z"/><path class="cls-1" d="M23.5,14c0,.22-.16.36-.42.36H21c-.27,0-.43-.13-.43-.34s.15-.36.42-.36h2.1C23.34,13.66,23.5,13.8,23.5,14Z"/><path class="cls-1" d="M23.5,17.27c0,.22-.17.34-.46.34H21c-.29,0-.45-.13-.44-.36s.16-.34.43-.34c.69,0,1.37,0,2.05,0C23.34,16.91,23.51,17.05,23.5,17.27Z"/><path class="cls-1" d="M23.5,20.5a.35.35,0,0,1-.4.36q-1.07,0-2.13,0a.35.35,0,0,1-.4-.35c0-.21.15-.35.4-.35h2.12C23.34,20.16,23.5,20.3,23.5,20.5Z"/></g></g></svg>