<svg xmlns="http://www.w3.org/2000/svg" viewBox="0 0 41.62 41.62"><defs><style>.cls-1{fill:#fff;}</style></defs><title>سيرش</title><g id="Layer_2" data-name="Layer 2"><g id="Layer_2-2" data-name="Layer 2"><path class="cls-1" d="M40.75,38.48q-4.68-4.71-9.38-9.4a4.86,4.86,0,0,0-.41-.31c.12-.18.2-.29.28-.39a17,17,0,0,0,3.5-7.72,17,17,0,0,0-3-13.25A17.09,17.09,0,0,0,21.84.56C20.9.32,19.93.23,19,.07L18.61,0H16.42l-.76.09A17.22,17.22,0,0,0,4,6.38,16.79,16.79,0,0,0,.16,19.71,17,17,0,0,0,8,32.21a16.83,16.83,0,0,0,11.66,2.68,17.11,17.11,0,0,0,8.39-3.42l.71-.53a2.14,2.14,0,0,0,.29.41q4.74,4.77,9.51,9.52a3.69,3.69,0,0,0,.41.38,1.6,1.6,0,0,0,2.49-.59c.05-.12.09-.23.14-.34v-.65A10.38,10.38,0,0,0,40.75,38.48ZM17.49,31.79a14.28,14.28,0,1,1,14.3-14.24A14.3,14.3,0,0,1,17.49,31.79Z"/></g></g></svg>