<svg xmlns="http://www.w3.org/2000/svg" viewBox="0 0 41.62 41.62"><path d="M40.75 38.48q-4.68-4.71-9.38-9.4a4.86 4.86 0 00-.41-.31c.12-.18.2-.29.28-.39a17 17 0 003.5-7.72 17 17 0 00-3-13.25 17.09 17.09 0 00-9.9-6.85C20.9.32 19.93.23 19 .07L18.61 0h-2.19l-.76.09A17.22 17.22 0 004 6.38 16.79 16.79 0 00.16 19.71 17 17 0 008 32.21a16.83 16.83 0 0011.66 2.68 17.11 17.11 0 008.39-3.42l.71-.53a2.14 2.14 0 00.29.41q4.74 4.77 9.51 9.52a3.69 3.69 0 00.41.38 1.6 1.6 0 002.49-.59c.05-.12.09-.23.14-.34v-.65a10.38 10.38 0 00-.85-1.19zm-23.26-6.69a14.28 14.28 0 1114.3-14.24 14.3 14.3 0 01-14.3 14.24z" fill="#fff" data-name="Layer 2"/></svg>