<svg xmlns="http://www.w3.org/2000/svg" viewBox="0 0 19.18 19.09"><defs><style>.cls-1{fill:#ebebeb;}</style></defs><title>settings</title><g id="Layer_2" data-name="Layer 2"><g id="Layer_2-2" data-name="Layer 2"><path class="cls-1" d="M19.15,2.38a2.16,2.16,0,0,0-.64-1.23L18,.68a2.13,2.13,0,0,0-3.12,0Q10.7,4.88,6.5,9.09a.91.91,0,0,0-.22.38c-.36,1.28-.71,2.57-1.07,3.85-.13.49.17.79.66.65L9.72,12.9a.91.91,0,0,0,.38-.22c2.8-2.8,5.6-5.59,8.39-8.4A3.46,3.46,0,0,0,19,3.5,2.49,2.49,0,0,0,19.18,3V2.44S19.15,2.4,19.15,2.38ZM6.33,12.85c.24-.84.46-1.65.68-2.44l1.76,1.77Zm3.39-1.18L7.51,9.46l6.92-6.92,2.21,2.21ZM18,3.45a7.92,7.92,0,0,1-.61.56L15.12,1.77A6.93,6.93,0,0,1,16,1.09a1,1,0,0,1,1.22.12A5.23,5.23,0,0,1,18,2,1.13,1.13,0,0,1,18,3.45Z"/><path class="cls-1" d="M18.17,16.82a2.34,2.34,0,0,1-2.25,2.25c-1.38,0-2.76,0-4.14,0H9.08c-2.2,0-4.4,0-6.61,0A2.34,2.34,0,0,1,.14,17.46a2.4,2.4,0,0,1-.13-.8Q0,10.48,0,4.29A2.36,2.36,0,0,1,2.41,1.87c1.39,0,2.78,0,4.16,0a.49.49,0,0,1,.54.47.5.5,0,0,1-.54.48H2.47A1.43,1.43,0,0,0,1,3.92a2.38,2.38,0,0,0,0,.46V16.57A1.43,1.43,0,0,0,2,18.08a1.8,1.8,0,0,0,.46.05h13.2a1.45,1.45,0,0,0,1.54-1.54V12.52a.49.49,0,0,1,.39-.53.48.48,0,0,1,.56.5v2.25C18.18,15.44,18.19,16.13,18.17,16.82Z"/></g></g></svg>