<svg xmlns="http://www.w3.org/2000/svg" viewBox="0 0 9.73 7.95"><defs><style>.cls-1{fill:#58595b;}</style></defs><title>twitter</title><g id="Layer_2" data-name="Layer 2"><g id="Layer_1-2" data-name="Layer 1"><path class="cls-1" d="M9.73,1a3.15,3.15,0,0,1-.22.29,3.76,3.76,0,0,1-.7.68.17.17,0,0,0-.06.12,5.79,5.79,0,0,1-1.83,4.4A5.22,5.22,0,0,1,4.14,7.85a5.69,5.69,0,0,1-1.93,0A5.79,5.79,0,0,1,0,7.08v0a4.06,4.06,0,0,0,2.92-.82,2.05,2.05,0,0,1-1.86-1.4,2.13,2.13,0,0,0,.87,0,2,2,0,0,1-1.58-2c.15.06.29.12.43.16A2.13,2.13,0,0,0,1.22,3,2.06,2.06,0,0,1,.64.36a5.69,5.69,0,0,0,4.12,2.1,3.9,3.9,0,0,1,0-.59A1.89,1.89,0,0,1,5.65.33,2,2,0,0,1,8.14.58a.12.12,0,0,0,.14,0c.2-.07.4-.11.61-.18L9.47.17a1.47,1.47,0,0,1-.33.6c-.14.17-.32.32-.47.48A4.76,4.76,0,0,0,9.73,1Z"/></g></g></svg>