<svg id="Capa_1" data-name="Capa 1" xmlns="http://www.w3.org/2000/svg" viewBox="0 0 443.73 477.86"><defs><style>.cls-1{fill:#fff}</style></defs><path class="cls-1" d="M409.6 153.6h-85.34a17.07 17.07 0 000 34.13h85.34a17.06 17.06 0 0117.06 17.07v221.86a17.06 17.06 0 01-17.06 17.07H68.26a17.06 17.06 0 01-17.06-17.07V204.8a17.06 17.06 0 0117.06-17.07h85.34a17.07 17.07 0 000-34.13H68.26a51.2 51.2 0 00-51.2 51.19v221.87a51.2 51.2 0 0051.2 51.2H409.6a51.2 51.2 0 0051.2-51.2V204.8a51.2 51.2 0 00-51.2-51.2z" transform="translate(-17.06)"/><path class="cls-1" d="M336.33 90.33L251 5a17.05 17.05 0 00-24.13 0l-85.34 85.33a17.07 17.07 0 0024.13 24.13l56.21-56.2v283.07a17.07 17.07 0 1034.13 0V58.26l56.2 56.2a17.07 17.07 0 0024.13-24.13z" transform="translate(-17.06)"/></svg>