<svg xmlns="http://www.w3.org/2000/svg" viewBox="0 0 480 480"><path d="M472.424 79.57l-14.4-72.608a8 8 0 00-9.405-6.289l-.003.001L52.248 79.482H40a8 8 0 00-8 8v40.8c-18.647 3.768-32.041 20.176-32 39.2v272c.026 22.08 17.92 39.974 40 40h432a8 8 0 008-8v-384a8 8 0 00-7.576-7.912zm-28.552-61.64l12.224 61.552h-321.8L443.872 17.93zM22.936 150.506l.04.032a24.466 24.466 0 019.024-5.68v45.16c-.176-.056-.352-.096-.528-.16a23.523 23.523 0 01-3-1.448c-.48-.264-.992-.472-1.456-.8a24.692 24.692 0 01-4-3.136c-9.377-9.369-9.413-24.556-.08-33.968zM464 367.482H352v-64h112v64zm0-80H344a8 8 0 00-8 8v80a8 8 0 008 8h120v80H40c-13.255 0-24-10.745-24-24v-240c.36.272.76.456 1.128.712.704.496 1.432.92 2.16 1.368a40.228 40.228 0 004.176 2.224c.8.36 1.6.712 2.4 1.016a38.544 38.544 0 004.712 1.424c.744.184 1.464.416 2.216.552 2.376.452 4.789.688 7.208.704h424v80zm-263.432-96c4.394-30.614 32.773-51.87 63.388-47.476 24.61 3.532 43.944 22.867 47.476 47.476H200.568zm263.432 0H327.528c-4.546-39.504-40.255-67.843-79.759-63.297-33.245 3.826-59.472 30.052-63.297 63.297H48v-96h416v96z"/><path d="M440 111.482h-48v16h40v40h16v-48a8 8 0 00-8-8zM72 111.482a8 8 0 00-8 8v48h16v-40h40v-16H72zM368 327.482h16v16h-16z"/></svg>