<svg xmlns="http://www.w3.org/2000/svg" viewBox="0 0 9.17 9.16"><defs><style>.cls-1{fill:#58595b;}</style></defs><title>website</title><g id="Layer_2" data-name="Layer 2"><g id="Layer_1-2" data-name="Layer 1"><path class="cls-1" d="M4.58,0A4.58,4.58,0,1,0,9.17,4.58,4.57,4.57,0,0,0,4.58,0ZM4.34.48v2A4.89,4.89,0,0,1,3,2.26,2.75,2.75,0,0,1,4.34.48ZM3.28.69a4.55,4.55,0,0,0-.73,1.42l-.81-.5A3.82,3.82,0,0,1,3.28.69ZM1.41,2l1,.56s.05.07,0,.11a7.79,7.79,0,0,0-.21,1.6c0,.06,0,.12-.09.12H.48A4.06,4.06,0,0,1,1.41,2ZM.47,4.82H2.18a5.27,5.27,0,0,0,0,.56c0,.38.12.75.18,1.13,0,0,0,.12,0,.13-.3.19-.62.37-.94.56A4.14,4.14,0,0,1,.47,4.82ZM1.74,7.55l.8-.5a4.48,4.48,0,0,0,.78,1.44A4.24,4.24,0,0,1,1.74,7.55Zm2.6,1.1a1.29,1.29,0,0,1-.63-.41A3.78,3.78,0,0,1,3,6.9a4.43,4.43,0,0,1,1.35-.26Zm0-2.51-1.49.27a7.44,7.44,0,0,1-.2-1.59H4.34Zm0-1.81H2.67a5.48,5.48,0,0,1,.19-1.58L4.34,3Zm4.35,0H7.12C7,4.35,7,4.31,7,4.2a8.33,8.33,0,0,0-.2-1.56.15.15,0,0,1,0-.13l1-.55A4.13,4.13,0,0,1,8.69,4.34ZM7.43,1.61l-.81.5A4.92,4.92,0,0,0,5.88.69,3.92,3.92,0,0,1,7.43,1.61ZM6.52,4.33H4.83V3l1.48-.27A7.34,7.34,0,0,1,6.52,4.33ZM4.83.51a1.19,1.19,0,0,1,.61.4,3.71,3.71,0,0,1,.74,1.35,4.89,4.89,0,0,1-1.35.26Zm0,4.31H6.51a7,7,0,0,1-.2,1.59L4.82,6.14Zm0,3.85v-2a4.55,4.55,0,0,1,1.35.26A2.72,2.72,0,0,1,4.83,8.67Zm1-.17a4.32,4.32,0,0,0,.77-1.45l.81.5A4.23,4.23,0,0,1,5.84,8.5Zm1.9-1.28C7.61,7.13,7.5,7,7.38,7l-.54-.31s-.09-.08-.08-.12A8.49,8.49,0,0,0,7,4.87l0,0H8.69A4.13,4.13,0,0,1,7.74,7.22Z"/></g></g></svg>